<svg xmlns="http://www.w3.org/2000/svg" xmlns:xlink="http://www.w3.org/1999/xlink" width="160" height="42" viewBox="0 0 160 42">
  <defs>
    <clipPath id="clip-path">
      <rect id="Rectangle_1004" data-name="Rectangle 1004" width="160" height="42" transform="translate(250.294 196.13)" fill="#fff" stroke="#707070" stroke-width="1"/>
    </clipPath>
    <clipPath id="clip-path-2">
      <rect id="Rectangle_1006" data-name="Rectangle 1006" width="160.589" height="28.058" fill="none"/>
    </clipPath>
  </defs>
  <g id="Mask_Group_201" data-name="Mask Group 201" transform="translate(-250.294 -196.13)" clip-path="url(#clip-path)">
    <g id="Component_48_4" data-name="Component 48 – 4" transform="translate(250 203.102)" clip-path="url(#clip-path-2)">
      <path id="Path_575" data-name="Path 575" d="M32.7,5.524C32.471,5.156,28.987,0,22.948,0H10.034A7.573,7.573,0,0,0,2.462,7.571V21.74c0,.418-.651.186-.651.186a2,2,0,0,0-.558-.094A1.249,1.249,0,0,0,0,23.087c0,1.491,2.323,2.09,3.252,2.09a4.251,4.251,0,0,0,.789-.046,7.666,7.666,0,0,0,5.993,2.927H22.9a7.573,7.573,0,0,0,7.572-7.571V12.729s1.578-2,1.765-2.183h0s1.254-1.719,1.578-2.367.046-.929-1.115-2.648" transform="translate(0)" fill="#fff"/>
      <path id="Path_576" data-name="Path 576" d="M26.275,23.7a2.794,2.794,0,0,0,.929.139c1.393,0,2-.558,2-1.207,0-.744-1.022-.744-1.115-1.44-.139-.836-.046-4.552,1.393-6.6l.976.418a1.513,1.513,0,0,0,.6.139.877.877,0,0,0,.651-.325,18.791,18.791,0,0,0,2.51-3.437c.139-.232-1.9-2.787-3.02-3.669a4.647,4.647,0,0,0-2.833-.978,4.484,4.484,0,0,0-4.274,3.02,21.7,21.7,0,0,1-6.41,3.069c-3.113.836-6.317.046-8.454.186A4.4,4.4,0,0,0,4.817,17.57c.046,2.416,1.719,4.6,1.719,6.875A2.487,2.487,0,0,1,4.072,27c-1.207,0-1.254-.465-1.626-.465a.3.3,0,0,0-.372.278c0,.6,1.491,1.162,2.323,1.162a3.683,3.683,0,0,0,3.157-1.578,2.776,2.776,0,0,0,2.787,1.626c1.765,0,2.509-.836,2.509-1.533,0-.558-.325-.789-.6-1.162a1.682,1.682,0,0,1-.325-1.069,8.283,8.283,0,0,0,.929.046c1.254,0,1.672-.511,1.672-1.022,0-.651-.744-.6-.744-1.672,0-.836.465-1.069.836-1.069.418,0,2.044.139,4.041.372.651.046,2.28.7,2.28,3.252v.929c0,1.533.6,3.484,3.391,3.484,1.858,0,2.927-1.022,2.927-1.811,0-.511-.418-.7-.651-1.022a2.4,2.4,0,0,1-.325-2.044" transform="translate(-1.145 -3.723)" fill="#f26724"/>
      <path id="Path_577" data-name="Path 577" d="M65.785,19.814a.325.325,0,1,0,.325.325.317.317,0,0,0-.325-.325" transform="translate(-36.148 -10.942)" fill="#fff"/>
      <path id="Path_578" data-name="Path 578" d="M68.332,17.636a.279.279,0,1,0,.279.279.267.267,0,0,0-.279-.279" transform="translate(-37.579 -9.738)" fill="#fff"/>
      <path id="Path_579" data-name="Path 579" d="M69.634,15.25a.232.232,0,1,0,.232.232.249.249,0,0,0-.232-.232" transform="translate(-38.324 -8.421)" fill="#fff"/>
      <path id="Path_580" data-name="Path 580" d="M48.714,17.757a.372.372,0,1,0-.372-.372c.046.232.186.372.372.372" transform="translate(-26.695 -9.395)" fill="#fff"/>
      <path id="Path_581" data-name="Path 581" d="M51.779,37.554a.331.331,0,0,0-.325.372.359.359,0,0,0,.325.372.367.367,0,0,0,.372-.372c-.046-.186-.186-.372-.372-.372" transform="translate(-28.413 -20.737)" fill="#fff"/>
      <path id="Path_582" data-name="Path 582" d="M56.391,38.383a.372.372,0,1,0,.372.372c-.046-.232-.186-.372-.372-.372" transform="translate(-30.934 -21.195)" fill="#fff"/>
      <path id="Path_583" data-name="Path 583" d="M52.345,30.5a.372.372,0,0,0,0,.744.342.342,0,0,0,.372-.372.367.367,0,0,0-.372-.372" transform="translate(-28.7 -16.842)" fill="#fff"/>
      <path id="Path_584" data-name="Path 584" d="M55.092,24.292a.375.375,0,1,0-.324-.372.372.372,0,0,0,.324.372" transform="translate(-30.239 -13.003)" fill="#fff"/>
      <path id="Path_585" data-name="Path 585" d="M42.8,21.076a.372.372,0,1,0-.372-.372c.046.232.186.372.372.372" transform="translate(-23.43 -11.228)" fill="#fff"/>
      <path id="Path_586" data-name="Path 586" d="M47.262,36a.372.372,0,1,0,.372.372c-.046-.232-.186-.372-.372-.372" transform="translate(-25.893 -19.878)" fill="#fff"/>
      <path id="Path_587" data-name="Path 587" d="M45.083,24.915a.331.331,0,0,0,.325-.372.359.359,0,0,0-.325-.372.372.372,0,0,0,0,.744" transform="translate(-24.69 -13.348)" fill="#fff"/>
      <path id="Path_588" data-name="Path 588" d="M40.1,30.292a.372.372,0,1,0,.372.372.4.4,0,0,0-.372-.372" transform="translate(-21.941 -16.728)" fill="#fff"/>
      <path id="Path_589" data-name="Path 589" d="M48.2,28.546a.372.372,0,1,0-.372-.372c.046.232.186.372.372.372" transform="translate(-26.409 -15.352)" fill="#fff"/>
      <path id="Path_590" data-name="Path 590" d="M35.85,22.511a.372.372,0,1,0,.372.372.367.367,0,0,0-.372-.372" transform="translate(-19.592 -12.431)" fill="#fff"/>
      <path id="Path_591" data-name="Path 591" d="M37.614,26.557a.372.372,0,1,0,.372.372c-.046-.232-.186-.372-.372-.372" transform="translate(-20.565 -14.665)" fill="#fff"/>
      <path id="Path_592" data-name="Path 592" d="M43.32,33.3a.372.372,0,1,0,.372.372c-.046-.186-.186-.372-.372-.372" transform="translate(-23.716 -18.388)" fill="#fff"/>
      <path id="Path_593" data-name="Path 593" d="M51.308,21.388a.372.372,0,1,0-.372-.372c.046.232.186.372.372.372" transform="translate(-28.127 -11.4)" fill="#fff"/>
      <path id="Path_594" data-name="Path 594" d="M57.013,31.952a.372.372,0,1,0,.372.372.367.367,0,0,0-.372-.372" transform="translate(-31.278 -17.644)" fill="#fff"/>
      <path id="Path_595" data-name="Path 595" d="M58.984,25.624a.372.372,0,0,0,0,.744A.342.342,0,0,0,59.356,26a.367.367,0,0,0-.372-.372" transform="translate(-32.366 -14.15)" fill="#fff"/>
      <path id="Path_596" data-name="Path 596" d="M58.466,19.191a.372.372,0,1,0,.372.372.342.342,0,0,0-.372-.372" transform="translate(-32.08 -10.598)" fill="#fff"/>
      <path id="Path_597" data-name="Path 597" d="M62.2,20.333a.372.372,0,1,0,.372.372.4.4,0,0,0-.372-.372" transform="translate(-34.142 -11.228)" fill="#fff"/>
      <path id="Path_598" data-name="Path 598" d="M55.768,16.806a.372.372,0,1,0,.372.372c-.046-.232-.186-.372-.372-.372" transform="translate(-30.591 -9.28)" fill="#fff"/>
      <path id="Path_599" data-name="Path 599" d="M54.212,13.8a.372.372,0,1,0,.372.372c-.046-.186-.186-.372-.372-.372" transform="translate(-29.731 -7.619)" fill="#fff"/>
      <path id="Path_600" data-name="Path 600" d="M57.428,13.8a.372.372,0,1,0,.372.372.4.4,0,0,0-.372-.372" transform="translate(-31.507 -7.619)" fill="#fff"/>
      <path id="Path_601" data-name="Path 601" d="M54.152,11.379a.3.3,0,0,1,.279-.279.267.267,0,0,1,.279.279.279.279,0,0,1-.558,0" transform="translate(-29.903 -6.129)" fill="#fff"/>
      <path id="Path_602" data-name="Path 602" d="M56.123,9.05a.232.232,0,1,1,.232.232.249.249,0,0,1-.232-.232" transform="translate(-30.992 -4.87)" fill="#fff"/>
      <path id="Path_603" data-name="Path 603" d="M58.613,7.966a.186.186,0,1,1,.186.186.2.2,0,0,1-.186-.186" transform="translate(-32.366 -4.296)" fill="#fff"/>
      <path id="Path_604" data-name="Path 604" d="M69.4,13.361a.186.186,0,1,1,.186.186.2.2,0,0,1-.186-.186" transform="translate(-38.324 -7.276)" fill="#fff"/>
      <path id="Path_605" data-name="Path 605" d="M68.779,21.141a.186.186,0,1,1,.186.186c-.046,0-.139-.093-.186-.186" transform="translate(-37.98 -11.572)" fill="#fff"/>
      <path id="Path_606" data-name="Path 606" d="M69.92,19.689a.186.186,0,1,1,.186.186.2.2,0,0,1-.186-.186" transform="translate(-38.61 -10.77)" fill="#fff"/>
      <path id="Path_607" data-name="Path 607" d="M67.638,22.7a.186.186,0,1,1,.186.186.2.2,0,0,1-.186-.186" transform="translate(-37.35 -12.431)" fill="#fff"/>
      <path id="Path_608" data-name="Path 608" d="M66.289,24.046a.186.186,0,1,1,.186.186c-.093,0-.139-.093-.186-.186" transform="translate(-36.606 -13.176)" fill="#fff"/>
      <path id="Path_609" data-name="Path 609" d="M70.957,18.133a.186.186,0,1,1,.186.186.2.2,0,0,1-.186-.186" transform="translate(-39.184 -9.91)" fill="#fff"/>
      <path id="Path_610" data-name="Path 610" d="M71.684,16.784a.186.186,0,1,1,.186.186c-.093,0-.139-.046-.186-.186" transform="translate(-39.585 -9.166)" fill="#fff"/>
      <path id="Path_611" data-name="Path 611" d="M21.087,41.56a5.626,5.626,0,0,1-.418-4.459,3.714,3.714,0,0,1,3.809-2.183,3.263,3.263,0,0,0-1.491-.279A3.715,3.715,0,0,0,19.6,38.633,4.276,4.276,0,0,0,21.1,41.56" transform="translate(-10.822 -19.124)" fill="#fff"/>
      <path id="Path_612" data-name="Path 612" d="M11.361,27.965a2.981,2.981,0,0,1-.883-2.137,3.074,3.074,0,0,1,3.02-3.02c1.719-.093,4.878.418,6.922.139.7,3.113,3.02,5.3,4.735,6.689-2.09-.929-4.181-3.391-6.6-4.735-2.509-1.393-5.064-1.626-6.41-.372a3.47,3.47,0,0,0-.789,3.438" transform="translate(-5.786 -12.589)" fill="#fff"/>
      <path id="Path_613" data-name="Path 613" d="M26.6,41.392c.139.883-1.491,1.207-1.491,1.207,1.491.279,1.951-.511,1.951-.511a3.546,3.546,0,0,0-.465-.7" transform="translate(-13.863 -22.857)" fill="#fff"/>
      <path id="Path_614" data-name="Path 614" d="M52.207,42.428h0a4.659,4.659,0,0,0-.279,3.858,5.016,5.016,0,0,1-1.719.877s2.23.279,2.927-.883c-1.393-1.069-.976-3.669-.929-3.858" transform="translate(-27.727 -23.429)" fill="#fff"/>
      <path id="Path_615" data-name="Path 615" d="M62.269,10.648a1.479,1.479,0,0,0-1.811,1.022A1.443,1.443,0,0,0,61.8,13.248a1.479,1.479,0,0,0,1.811-1.022,1.443,1.443,0,0,0-1.347-1.578m1.115,1.533a1.078,1.078,0,0,1-1.3.744,1.022,1.022,0,0,1-.929-1.115,1.078,1.078,0,0,1,1.3-.744,1.022,1.022,0,0,1,.929,1.115" transform="translate(-33.375 -5.863)" fill="#fff"/>
      <path id="Path_616" data-name="Path 616" d="M64.415,13.065a.6.6,0,0,1,.7-.418.561.561,0,0,1,.511.6.6.6,0,0,1-.7.418.561.561,0,0,1-.511-.6" transform="translate(-35.568 -6.979)" fill="#fff"/>
      <path id="Path_617" data-name="Path 617" d="M58.943,39.732h0c.511.976-1.162,1.347-1.162,1.347,1.207.186,1.858-.511,1.858-.836a3.007,3.007,0,0,1-.7-.511" transform="translate(-31.908 -21.941)" fill="#fff"/>
      <path id="Path_618" data-name="Path 618" d="M36.707,32.46s.232.279.6.651A14.906,14.906,0,0,0,38.8,34.364a11.362,11.362,0,0,0,1.626,1.022,3.055,3.055,0,0,0,.558.279,1.953,1.953,0,0,1,.232.093,1.952,1.952,0,0,0-.232-.093,3.192,3.192,0,0,1-.6-.279,13.955,13.955,0,0,1-1.719-.976A11.779,11.779,0,0,1,37.129,33.2a6.813,6.813,0,0,1-.651-.651.141.141,0,0,1,0-.186.351.351,0,0,1,.232.093h0" transform="translate(-20.123 -17.873)" fill="#fff"/>
      <path id="Path_619" data-name="Path 619" d="M62.285,10.384a2.509,2.509,0,0,0-4.227-.186.4.4,0,1,1-.6-.511,2.842,2.842,0,0,1,2.183-.973,2.806,2.806,0,0,1,2.648,1.672" transform="translate(-31.672 -4.809)" fill="#fff"/>
      <path id="Path_620" data-name="Path 620" d="M55.965,19.212a6.111,6.111,0,0,1-3.113-1.254A6.5,6.5,0,0,1,50.9,15.775c-.046-.139-.046-.325.093-.372a.251.251,0,0,1,.372.093,7.063,7.063,0,0,0,1.858,2.367,6.845,6.845,0,0,0,2.741,1.349" transform="translate(-28.093 -8.477)" fill="#fff"/>
      <path id="Path_621" data-name="Path 621" d="M51.583,23.228a7.541,7.541,0,0,1-4.877-2.416,10.2,10.2,0,0,1-1.533-2.137.271.271,0,1,1,.465-.279,9.155,9.155,0,0,0,1.811,2.694,7.02,7.02,0,0,0,4.134,2.137" transform="translate(-24.919 -10.082)" fill="#fff"/>
      <path id="Path_622" data-name="Path 622" d="M39.1,21.252a.263.263,0,0,1,.325.186,9.926,9.926,0,0,0,2.367,3.809,8.8,8.8,0,0,0,5.807,2.6,8.9,8.9,0,0,1-6.271-2.6,10.275,10.275,0,0,1-2.367-3.623.246.246,0,0,1,.139-.372" transform="translate(-21.493 -11.729)" fill="#fff"/>
      <path id="Path_623" data-name="Path 623" d="M59.942,15.281a2.727,2.727,0,0,0,1.533.465,1.886,1.886,0,0,0,2-1.534,2.192,2.192,0,0,1-2.183,1.951,3.237,3.237,0,0,1-1.626-.372.293.293,0,0,1-.139-.372c.139-.139.325-.232.418-.139" transform="translate(-32.86 -7.848)" fill="#fff"/>
      <path id="Path_624" data-name="Path 624" d="M88.013,42.624a1.183,1.183,0,0,1-.744,1.115,1.3,1.3,0,0,1,.883,1.162c0,1.022-.7,1.491-1.951,1.491H83.925V41.184h2.137c1.161,0,1.951.418,1.951,1.44m-3.113.7h1.069c.511,0,.929-.093.929-.6s-.418-.6-.929-.6H84.9Zm0,2.183h1.162c.558,0,.929-.139.929-.651,0-.465-.372-.6-.929-.6H84.9Z" transform="translate(-46.344 -22.743)" fill="#6e6f71"/>
      <path id="Path_625" data-name="Path 625" d="M98.318,46.434l-.465-1.207h-2.23l-.465,1.207H94.091l2.044-5.249h1.254l2.044,5.249Zm-.836-2.183-.744-2.044L96,44.253Z" transform="translate(-51.958 -22.743)" fill="#6e6f71"/>
      <path id="Path_626" data-name="Path 626" d="M111.293,46.434,108.6,42.9v3.53h-1.021V41.184h.976l2.648,3.484V41.184h1.069v5.249Z" transform="translate(-59.406 -22.743)" fill="#6e6f71"/>
      <path id="Path_627" data-name="Path 627" d="M121.717,44.253v2.183h-1.069V41.184h1.069v2.09h.465l1.765-2.09h1.3l-2.183,2.555,2.367,2.694h-1.347l-1.9-2.183Z" transform="translate(-66.623 -22.743)" fill="#6e6f71"/>
      <path id="Path_628" data-name="Path 628" d="M141.587,43.614a2.718,2.718,0,1,1-.8-1.945,2.741,2.741,0,0,1,.8,1.945m-4.459,0A1.673,1.673,0,1,0,138.8,41.9a1.622,1.622,0,0,0-1.672,1.719" transform="translate(-75.159 -22.571)" fill="#6e6f71"/>
      <path id="Path_629" data-name="Path 629" d="M151.444,44.3v2.137h-1.022V41.184h3.858v.929h-2.834v1.207h2.648V44.3Z" transform="translate(-83.064 -22.743)" fill="#6e6f71"/>
      <path id="Path_630" data-name="Path 630" d="M169.477,41.6l-.744.744a1.675,1.675,0,0,0-1.254-.558,1.72,1.72,0,0,0-.046,3.438,1.358,1.358,0,0,0,1.491-1.162h-1.3v-.883h2.416v.279a2.527,2.527,0,0,1-2.555,2.694,2.741,2.741,0,0,1,.046-5.482,3.225,3.225,0,0,1,1.951.929" transform="translate(-90.974 -22.456)" fill="#6e6f71"/>
      <path id="Path_631" data-name="Path 631" d="M178.742,46.434V41.184H182.6v.929h-2.834v1.162h2.741v.978h-2.741v1.207h2.88v.976Z" transform="translate(-98.703 -22.743)" fill="#6e6f71"/>
      <path id="Path_632" data-name="Path 632" d="M194.805,43.614a2.718,2.718,0,1,1-.8-1.945,2.741,2.741,0,0,1,.8,1.945m-4.459,0a1.673,1.673,0,1,0,1.672-1.719,1.622,1.622,0,0,0-1.672,1.719" transform="translate(-104.546 -22.571)" fill="#6e6f71"/>
      <path id="Path_633" data-name="Path 633" d="M207.831,42.763A1.514,1.514,0,0,1,206.3,44.3h-.046l1.626,2.09h-1.254l-1.533-2.09h-.325v2.137h-1.022V41.184h2.23c1.207,0,1.858.558,1.858,1.578m-3.113.651h1.162c.558,0,.883-.232.883-.651s-.325-.651-.883-.651h-1.162Z" transform="translate(-112.509 -22.743)" fill="#6e6f71"/>
      <path id="Path_634" data-name="Path 634" d="M219.218,41.6l-.744.744a1.675,1.675,0,0,0-1.254-.558,1.72,1.72,0,0,0-.046,3.438,1.358,1.358,0,0,0,1.491-1.162h-1.347v-.883h2.416v.279a2.528,2.528,0,0,1-2.555,2.694,2.741,2.741,0,1,1,.046-5.482,3.358,3.358,0,0,1,2,.929" transform="translate(-118.414 -22.456)" fill="#6e6f71"/>
      <rect id="Rectangle_493" data-name="Rectangle 493" width="1.022" height="5.249" transform="translate(102.29 18.442)" fill="#6e6f71"/>
      <path id="Path_635" data-name="Path 635" d="M236.5,46.434l-.465-1.207H233.8l-.465,1.207h-1.068l2.044-5.249h1.254l2.044,5.249Zm-.789-2.183-.744-2.044-.744,2.044Z" transform="translate(-128.262 -22.743)" fill="#6e6f71"/>
      <path id="Path_636" data-name="Path 636" d="M83.821,19.892V15.665h1.393V19.8c0,1.207.558,1.719,1.393,1.719.883,0,1.44-.465,1.44-1.254,0-.929-1.022-1.115-1.022-2.23h1.393c.046.6,1.069.883,1.069,2.367,0,1.393-1.207,2.416-2.88,2.416a2.6,2.6,0,0,1-2.786-2.925" transform="translate(-46.287 -8.65)" fill="#6e6f71"/>
      <path id="Path_637" data-name="Path 637" d="M98.445,19.892v-.465h1.393V19.8c0,1.207.558,1.719,1.44,1.719a1.271,1.271,0,0,0,1.393-1.393c0-1.626-2.23-2.09-2.23-4.041v-.418h1.393v.325c0,1.533,2.28,1.672,2.28,4.134a2.589,2.589,0,0,1-2.88,2.694,2.63,2.63,0,0,1-2.789-2.927" transform="translate(-54.361 -8.65)" fill="#6e6f71"/>
      <path id="Path_638" data-name="Path 638" d="M113.281,20.056v-.465h1.393v.372a1.281,1.281,0,0,0,1.347,1.393c.836,0,1.393-.511,1.393-1.719V18.57a1.147,1.147,0,0,0-1.207-1.3,1.017,1.017,0,0,0-1.162,1.022v.139h-1.393v-.139a2.223,2.223,0,0,1,2.28-2.28,1.683,1.683,0,0,1,1.491.789V15.457H118.8v4.227a2.606,2.606,0,0,1-2.787,2.927,2.4,2.4,0,0,1-2.741-2.555" transform="translate(-62.554 -8.536)" fill="#6e6f71"/>
      <path id="Path_639" data-name="Path 639" d="M127.8,19.892v-.465H129.2V19.8c0,1.207.558,1.719,1.44,1.719a1.271,1.271,0,0,0,1.393-1.393c0-1.626-2.23-2.09-2.23-4.041v-.418h1.393v.325c0,1.533,2.28,1.672,2.28,4.134a2.589,2.589,0,0,1-2.88,2.694,2.63,2.63,0,0,1-2.787-2.927" transform="translate(-70.573 -8.65)" fill="#6e6f71"/>
      <path id="Path_640" data-name="Path 640" d="M151.221,20.346v2.28h-1.44V20.442c0-.789-.372-1.207-.929-1.207a1.028,1.028,0,0,0-1.022,1.115v1.436h-1.44V20.3c0-.7-.372-1.115-.976-1.115-.558,0-1.022.418-1.022,1.254v2.141h-1.439V19.419c0-3.157,2.28-3.858,4.134-3.858h2.091v1.3h-1.951c-1.533,0-2.741.465-2.927,1.626a1.563,1.563,0,0,1,1.254-.6A1.675,1.675,0,0,1,147.086,19a2.075,2.075,0,0,1,1.9-1.115,2.317,2.317,0,0,1,2.23,2.462" transform="translate(-78.939 -8.593)" fill="#6e6f71"/>
      <path id="Path_641" data-name="Path 641" d="M163.7,19.776V18.382a2.6,2.6,0,0,1,2.648-2.927,2.033,2.033,0,0,1,2.044,1.207,2.05,2.05,0,0,1,2-1.207,2.427,2.427,0,0,1,2.367,2.648v4.506h-1.393V18.1c0-.836-.465-1.347-1.115-1.347s-1.112.51-1.112,1.347v1.672A2.616,2.616,0,0,1,166.4,22.7c-1.579,0-2.694-.976-2.694-2.927m4.041-.093v-1.3c0-1.162-.558-1.672-1.3-1.672s-1.3.511-1.3,1.672v1.3c0,1.207.558,1.719,1.3,1.719.7,0,1.3-.511,1.3-1.719" transform="translate(-90.396 -8.534)" fill="#6e6f71"/>
      <path id="Path_642" data-name="Path 642" d="M186.834,20.088V19.72h1.393V20a1.326,1.326,0,0,0,1.491,1.3c.929,0,1.491-.372,1.491-.929,0-.6-.558-.836-1.161-.836H189.3V18.281h.744c.6,0,1.022-.186,1.022-.744,0-.511-.511-.929-1.347-.929-.929,0-1.491.558-1.491,1.207V18h-1.4v-.232c0-1.347,1.162-2.416,2.927-2.416,1.626,0,2.787.976,2.787,2.183a1.392,1.392,0,0,1-1.115,1.393,1.4,1.4,0,0,1,1.207,1.533c0,1.254-1.162,2.137-2.927,2.137-1.765.046-2.88-.929-2.88-2.509" transform="translate(-103.171 -8.478)" fill="#6e6f71"/>
      <path id="Path_643" data-name="Path 643" d="M201.979,19.94v-.465h1.393v.42a1.281,1.281,0,0,0,1.393,1.347c.836,0,1.347-.511,1.347-1.672V18.221c0-1.162-.558-1.672-1.347-1.672a1.3,1.3,0,0,0-1.393,1.347v.139h-1.393V17.9a2.574,2.574,0,0,1,2.787-2.648,2.63,2.63,0,0,1,2.787,2.927v1.393a2.606,2.606,0,0,1-2.787,2.927,2.436,2.436,0,0,1-2.787-2.555" transform="translate(-111.535 -8.419)" fill="#6e6f71"/>
      <path id="Path_644" data-name="Path 644" d="M216.71,18.652v-.883a2.28,2.28,0,0,1,2.23-2.416,1.929,1.929,0,0,1,1.765,1.115,1.911,1.911,0,0,1,1.719-1.115,1.841,1.841,0,0,1,1.626,1.115,1.964,1.964,0,0,1,1.859-1.115,2.215,2.215,0,0,1,2.183,2.416v1.858H226.7V17.815c0-.789-.372-1.207-.929-1.207a1.052,1.052,0,0,0-1.022,1.115V19.4h-1.393V17.72a.994.994,0,0,0-.976-1.115,1.02,1.02,0,0,0-.976,1.115v1.672h-1.393V17.72c0-.7-.372-1.115-.929-1.115-.511,0-.976.418-.976,1.254v.7c0,1.811.789,2.694,3.3,2.694H226v1.3h-4.785c-2.044-.046-4.506-.744-4.506-3.9" transform="translate(-119.669 -8.478)" fill="#6e6f71"/>
      <path id="Path_645" data-name="Path 645" d="M253.092,17.769V22.5h-1.44V17.856c0-.789-.372-1.207-.929-1.207a1.028,1.028,0,0,0-1.022,1.115v2.927h-1.44V17.769c0-.7-.372-1.115-.976-1.115-.558,0-1.022.418-1.022,1.254v4.6h-1.439V17.771a2.323,2.323,0,0,1,2.323-2.416,1.944,1.944,0,0,1,1.811,1.115,1.986,1.986,0,0,1,1.9-1.115,2.25,2.25,0,0,1,2.23,2.416" transform="translate(-135.194 -8.478)" fill="#6e6f71"/>
      <path id="Path_646" data-name="Path 646" d="M266.505,19.892V15.665H267.9V19.8c0,1.207.558,1.719,1.393,1.719.883,0,1.44-.465,1.44-1.254,0-.929-1.022-1.115-1.022-2.23H271.1c.046.6,1.069.883,1.069,2.367,0,1.393-1.207,2.416-2.88,2.416A2.606,2.606,0,0,1,266.5,19.89" transform="translate(-147.166 -8.65)" fill="#6e6f71"/>
      <path id="Path_647" data-name="Path 647" d="M292.4,20.4c0,1.393-1.115,2.416-2.834,2.416s-2.834-1.019-2.834-2.416a2.386,2.386,0,0,1,2.28-2.367V17.52c0-.744-.883-.744-.883-1.858h1.393c0,.651.883.744.883,1.626v.789a2.333,2.333,0,0,1,2,2.323m-1.44-.046a1.261,1.261,0,1,0-.417.938,1.261,1.261,0,0,0,.417-.938" transform="translate(-158.338 -8.65)" fill="#6e6f71"/>
      <path id="Path_648" data-name="Path 648" d="M301.359,19.892v-.465h1.393V19.8c0,1.207.558,1.719,1.44,1.719a1.271,1.271,0,0,0,1.393-1.393c0-1.626-2.23-2.09-2.23-4.041v-.418h1.393v.325c0,1.533,2.28,1.672,2.28,4.134a2.589,2.589,0,0,1-2.88,2.694,2.63,2.63,0,0,1-2.787-2.927" transform="translate(-166.412 -8.65)" fill="#6e6f71"/>
      <path id="Path_649" data-name="Path 649" d="M316.4,20.4V17.707a2.214,2.214,0,0,1,2.416-2.044h2.741V16.87h-2.555c-.651,0-1.208.279-1.208.976v.929a1.813,1.813,0,0,1,1.719-.789,2.418,2.418,0,0,1,2.509,2.416,2.548,2.548,0,0,1-2.834,2.416A2.507,2.507,0,0,1,316.4,20.4m4.134-.046a1.236,1.236,0,1,0-1.183,1.259,1.237,1.237,0,0,0,1.183-1.259" transform="translate(-174.722 -8.648)" fill="#6e6f71"/>
      <path id="Path_650" data-name="Path 650" d="M330.824,20.274V20h1.393v.232a1.343,1.343,0,0,0,1.491,1.393c.929,0,1.491-.372,1.491-1.162,0-.744-.558-1.069-1.491-1.069h-.6V18.136h.744c.836,0,1.207-.325,1.207-1.069v-1.3h1.393v1.491a1.578,1.578,0,0,1-1.207,1.533,1.778,1.778,0,0,1,1.393,1.9c0,1.3-1.162,2.28-2.927,2.28-1.765-.093-2.88-1.069-2.88-2.694" transform="translate(-182.684 -8.707)" fill="#6e6f71"/>
      <path id="Path_651" data-name="Path 651" d="M346.384,18.337a2.744,2.744,0,1,1,5.482,0V22.61h-1.393V18.383c0-1.115-.558-1.626-1.347-1.626-.744,0-1.3.511-1.3,1.626V22.61h-1.393V18.337Z" transform="translate(-191.276 -8.535)" fill="#6e6f71"/>
    </g>
  </g>
</svg>
