<svg xmlns="http://www.w3.org/2000/svg" xmlns:xlink="http://www.w3.org/1999/xlink" width="18" height="18" viewBox="0 0 18 18">
  <defs>
    <clipPath id="clip-path">
      <rect id="Rectangle_1219" data-name="Rectangle 1219" width="18" height="18" transform="translate(40 472)" fill="#0076ff" stroke="#707070" stroke-width="1"/>
    </clipPath>
  </defs>
  <g id="Mask_Group_261" data-name="Mask Group 261" transform="translate(-40 -472)" clip-path="url(#clip-path)">
    <g id="secure-payment" transform="translate(40 472)">
      <path id="Path_1188" data-name="Path 1188" d="M16.941,8.912v-.58a2.824,2.824,0,0,0-5.647,0v.58H10.235v3.706a3.882,3.882,0,0,0,7.765,0V8.912Zm-4.588-.58a1.765,1.765,0,1,1,3.529,0v.58H12.353Zm1.393,5.545-1.414-1.414.749-.749.7.7,1.391-1.252.708.787Z" fill="#0076ff"/>
      <g id="Group_1111" data-name="Group 1111">
        <path id="Path_1189" data-name="Path 1189" d="M3.176,5.735H4.412V6.794H3.176Z" fill="#0076ff"/>
        <path id="Path_1190" data-name="Path 1190" d="M9.176,9.971H8.471V8.912h.706V7.853h1.088a3.884,3.884,0,0,1,4.559-3.339v-1.6A1.416,1.416,0,0,0,13.409,1.5H1.415A1.416,1.416,0,0,0,0,2.915v7.758a1.416,1.416,0,0,0,1.415,1.415H9.176Zm-4.941,0H2.118V8.912H4.235Zm.259-2.118h-1.4a.977.977,0,0,1-.976-.976V5.652a.977.977,0,0,1,.976-.976h1.4a.977.977,0,0,1,.976.976V6.877A.977.977,0,0,1,4.495,7.853ZM7.412,9.971H5.294V8.912H7.412Z" fill="#0076ff"/>
      </g>
    </g>
  </g>
</svg>
