<svg xmlns="http://www.w3.org/2000/svg" width="14.058" height="17.572" viewBox="0 0 14.058 17.572">
  <g id="Icon_ionic-ios-copy" data-name="Icon ionic-ios-copy" transform="translate(-4.5 -1.125)">
    <path id="Path_1254" data-name="Path 1254" d="M24.106,4.753H27.4a.22.22,0,0,0,.22-.22h0a1.022,1.022,0,0,0-.366-.78L24.432,1.4a1.369,1.369,0,0,0-.754-.271h0a.27.27,0,0,0-.271.271V4.057A.7.7,0,0,0,24.106,4.753Z" transform="translate(-9.063 -0.003)" fill="#303030"/>
    <path id="Path_1255" data-name="Path 1255" d="M16.092,4.054V1.125H11.3A1.175,1.175,0,0,0,10.125,2.3V14.6A1.175,1.175,0,0,0,11.3,15.768h8.786A1.175,1.175,0,0,0,21.254,14.6V5.7H17.74A1.65,1.65,0,0,1,16.092,4.054Z" transform="translate(-2.696 0)" fill="#303030"/>
    <path id="Path_1256" data-name="Path 1256" d="M6.4,17.779V5.625H5.671A1.175,1.175,0,0,0,4.5,6.8V19.683a1.175,1.175,0,0,0,1.171,1.171h9.372a1.175,1.175,0,0,0,1.171-1.171V18.95H7.575A1.175,1.175,0,0,1,6.4,17.779Z" transform="translate(0 -2.157)" fill="#303030"/>
  </g>
</svg>
