<svg xmlns="http://www.w3.org/2000/svg" xmlns:xlink="http://www.w3.org/1999/xlink" width="18" height="18" viewBox="0 0 18 18">
  <defs>
    <clipPath id="clip-path">
      <rect id="Rectangle_176" data-name="Rectangle 176" width="18" height="18" transform="translate(793.589 474)" fill="#ec4148" stroke="#707070" stroke-width="1"/>
    </clipPath>
  </defs>
  <g id="Mask_Group_35" data-name="Mask Group 35" transform="translate(-793.589 -474)" clip-path="url(#clip-path)">
    <g id="commerce" transform="translate(793.589 474.75)">
      <g id="Group_33" data-name="Group 33" transform="translate(0)">
        <path id="Path_220" data-name="Path 220" d="M16.5,5.833h-.208l-2.576-4.5A1.484,1.484,0,0,0,11.68.785L.743,7.152A1.506,1.506,0,0,0,.2,9.2l.186.324h0l.31.541L2.25,12.78v2.8a1.5,1.5,0,0,0,1.5,1.5H16.5a1.5,1.5,0,0,0,1.5-1.5V7.334A1.5,1.5,0,0,0,16.5,5.833ZM2.25,11.27l-.286-.5L2.25,10.6Zm0-3.936V8l-1.4.816A.753.753,0,0,1,1.121,7.8l1.15-.669A1.477,1.477,0,0,0,2.25,7.334ZM14.181,3.656l1.246,2.177H10.442ZM12.058,1.433a.724.724,0,0,1,.557-.075.735.735,0,0,1,.45.348h0L5.98,5.833H4.5ZM9,12.209a.375.375,0,0,1-.375.375H4.875a.375.375,0,1,1,0-.75h3.75A.375.375,0,0,1,9,12.209Zm1.125,2.625H4.875a.375.375,0,1,1,0-.75h5.25a.375.375,0,0,1,0,.75Zm4.078,0a1.557,1.557,0,0,1-.7-.167,1.556,1.556,0,0,1-.7.167,1.5,1.5,0,1,1,0-3,1.557,1.557,0,0,1,.7.167,1.556,1.556,0,0,1,.7-.167,1.5,1.5,0,1,1,0,3Z" transform="translate(0 -0.583)" fill="#ec4148"/>
      </g>
    </g>
  </g>
</svg>
