<svg xmlns="http://www.w3.org/2000/svg" xmlns:xlink="http://www.w3.org/1999/xlink" width="22" height="22" viewBox="0 0 22 22">
  <defs>
    <clipPath id="clip-path">
      <rect id="Rectangle_3430" data-name="Rectangle 3430" width="22" height="22" transform="translate(1850 176)" fill="#fff" stroke="#707070" stroke-width="1"/>
    </clipPath>
  </defs>
  <g id="Mask_Group_289" data-name="Mask Group 289" transform="translate(-1850 -176)" clip-path="url(#clip-path)">
    <g id="MycreditINFO_Logo2_GEO" data-name="MycreditINFO Logo2_GEO" transform="translate(1851.503 176)">
      <path id="Path_355" data-name="Path 355" d="M214.595,108.567a2.215,2.215,0,0,1-2.436,1.537,1.673,1.673,0,0,1-1.408-2.143,2.218,2.218,0,0,1,2.438-1.537,1.673,1.673,0,0,1,1.406,2.143" transform="translate(-199.578 -106.4)" fill="#a7aaac"/>
      <path id="Path_356" data-name="Path 356" d="M197.981,124.7a1.117,1.117,0,0,0,1.114,1.1s1.913-8.141,5.46-11.525a7.683,7.683,0,0,0-2.689-.73,10.07,10.07,0,0,0-6.769,1.48,9.629,9.629,0,0,0-4.2,5.524,8.513,8.513,0,0,0,1.155,7.12,8.936,8.936,0,0,0,6.065,3.768,9.988,9.988,0,0,0,5.911-.889c-7.212,1.024-9.294-2.789-9.9-4.966h0a5.519,5.519,0,0,1-.026-3.2,7.184,7.184,0,0,1,6.261-5.089,6.271,6.271,0,0,0-1.759.991A27.369,27.369,0,0,0,197.981,124.7Z" transform="translate(-190.575 -109.561)" fill="#a7aaac"/>
      <path id="Path_357" data-name="Path 357" d="M197.771,137.164c.016.028.031.056.049.084-.018-.028-.033-.056-.049-.084" transform="translate(-193.797 -120.176)" fill="#fff"/>
      <path id="Path_358" data-name="Path 358" d="M204.685,141.518a6.635,6.635,0,0,1-1.28-.08,6.015,6.015,0,0,1-2.049-.7,6.018,6.018,0,0,0,2.049.707,6.837,6.837,0,0,0,1.281.077" transform="translate(-195.403 -121.775)" fill="#fff"/>
      <path id="Path_359" data-name="Path 359" d="M197.474,136.593l.044.092-.044-.092" transform="translate(-193.664 -119.921)" fill="#fff"/>
      <path id="Path_360" data-name="Path 360" d="M197.223,136.032l.026.056-.026-.056" transform="translate(-193.552 -119.669)" fill="#fff"/>
      <path id="Path_361" data-name="Path 361" d="M212.374,124.628a8.4,8.4,0,0,0,.082-.871,8.491,8.491,0,0,0-.335-2.74c-.036-.115-.072-.231-.11-.346a8.525,8.525,0,0,0-1.959-3.194,8.688,8.688,0,0,0-1.068-.939l-.08-.059-.233-.174-.151.136-.1.087c-.136.12-.256.245-.379.367a7.7,7.7,0,0,0-1.25,1.714l-.072.146-.125.256.046.026.4.223a5.245,5.245,0,0,1,1.322,1.037,5.337,5.337,0,0,1,1.15,5.122,6.756,6.756,0,0,1-1.537,2.743,7.509,7.509,0,0,1-5.214,2.42,6.84,6.84,0,0,1-1.28-.077,6.019,6.019,0,0,1-2.049-.707,5.255,5.255,0,0,1-1.749-1.6c-.064-.095-.125-.195-.184-.292l-.046-.084c-.041-.072-.082-.146-.118-.223-.015-.031-.033-.062-.046-.092-.041-.082-.077-.167-.113-.256l-.026-.056c-.041-.108-.082-.215-.115-.327h0c.6,2.179,2.684,5.988,9.9,4.966h0L207,131.8c.12-.056.238-.118.353-.182l.141-.074c.154-.087.307-.177.458-.274.286-.179.558-.371.82-.574a9.732,9.732,0,0,0,2.71-3.242,9.283,9.283,0,0,0,.669-1.706,8.092,8.092,0,0,0,.233-1.111" transform="translate(-193.467 -110.836)" fill="#c62b27"/>
    </g>
  </g>
</svg>
