<svg xmlns="http://www.w3.org/2000/svg" xmlns:xlink="http://www.w3.org/1999/xlink" width="20" height="20" viewBox="0 0 20 20">
  <defs>
    <clipPath id="clip-path">
      <rect id="Rectangle_310" data-name="Rectangle 310" width="20" height="20" transform="translate(60 524)" fill="#c62b27" stroke="#707070" stroke-width="1"/>
    </clipPath>
  </defs>
  <g id="Mask_Group_68" data-name="Mask Group 68" transform="translate(-60 -524)" clip-path="url(#clip-path)">
    <g id="loan" transform="translate(60 524)">
      <path id="Path_329" data-name="Path 329" d="M7.831,10.812a11.778,11.778,0,0,1,2.121-.081A7.248,7.248,0,0,1,11.543,0,6.071,6.071,0,0,0,7.831,10.812Z" transform="translate(-1.587 0)" fill="#c62b27"/>
      <path id="Path_330" data-name="Path 330" d="M13.163,10.731h1.582a2.368,2.368,0,0,1,2.166,1.411,6.072,6.072,0,1,0-3.748-1.411Zm3.3-7.768v-.5a.588.588,0,1,1,1.176,0v.5a2.113,2.113,0,0,1,.827.149h0a2.188,2.188,0,0,1,.791.539.588.588,0,1,1-.858.805.979.979,0,0,0-.7-.316H16.347a.671.671,0,0,0,0,1.342h1.4a1.851,1.851,0,1,1-.113,3.7v.5a.588.588,0,1,1-1.176,0v-.5a2.2,2.2,0,0,1-1.4-.393.589.589,0,0,1,.671-.968A.991.991,0,0,0,16.275,8h1.474a.671.671,0,0,0,0-1.342h-1.4a1.851,1.851,0,1,1,.113-3.7Z" transform="translate(-3.138)" fill="#c62b27"/>
      <path id="Path_331" data-name="Path 331" d="M19.617,19.429a1.306,1.306,0,0,0-1.849,0L15.849,21.35a1.122,1.122,0,0,1-.793.329h-5a1.311,1.311,0,0,1,0-2.623h1.522A1.207,1.207,0,0,0,12.8,17.892a1.191,1.191,0,0,0-1.19-1.22H7.234a4.888,4.888,0,0,0-3.762,1.769l-.709.9a.2.2,0,0,1-.154.075H.392A.392.392,0,0,0,0,19.809v4.561a.392.392,0,0,0,.392.393h15.15a1.435,1.435,0,0,0,1.015-.421l3.059-3.063A1.31,1.31,0,0,0,19.617,19.429Z" transform="translate(0 -4.763)" fill="#c62b27"/>
    </g>
  </g>
</svg>
