<svg xmlns="http://www.w3.org/2000/svg" width="18.378" height="16.382" viewBox="0 0 18.378 16.382">
  <g id="credit-cards-payment" transform="translate(0 -33.234)">
    <g id="Group_6668" data-name="Group 6668" transform="translate(0 33.234)">
      <path id="Path_1399" data-name="Path 1399" d="M184.279,35.635l-11.256-2.382a.888.888,0,0,0-1.049.683l-.214,1.374,12.987,2.748.214-1.374A.888.888,0,0,0,184.279,35.635Z" transform="translate(-166.602 -33.234)" fill="black"/>
      <path id="Path_1400" data-name="Path 1400" d="M12.943,168.225a.9.9,0,0,0-1.1-.622l-2.137.593L4.669,167.13l-.554,2.618-3.461.961a.9.9,0,0,0-.622,1.1l1.951,7.029a.9.9,0,0,0,1.1.622l11.189-3.105a.9.9,0,0,0,.622-1.1l-.335-1.207,1.255.265a.887.887,0,0,0,1.049-.683l.794-3.752-4.52-.957Zm1.292,3.573.277-1.308a.365.365,0,0,1,.432-.281l1.308.277a.365.365,0,0,1,.281.432l-.277,1.308a.365.365,0,0,1-.432.281l-1.308-.277A.365.365,0,0,1,14.235,171.8ZM.849,171.41l3.1-.859,7.306-2.028.786-.218a.164.164,0,0,1,.043-.006.169.169,0,0,1,.161.121l.092.332.289,1.042L1.115,172.988l-.382-1.374A.167.167,0,0,1,.849,171.41Zm13.343,4.039a.168.168,0,0,1-.115.2L2.888,178.757a.163.163,0,0,1-.043.006.169.169,0,0,1-.161-.121l-1.138-4.1,11.507-3.193.7,2.529Z" transform="translate(0 -163.109)" fill="black"/>
      <path id="Path_1401" data-name="Path 1401" d="M91.079,444.868a.365.365,0,0,0-.448-.254l-1.307.363a.365.365,0,0,0-.253.448l.363,1.307a.365.365,0,0,0,.448.253l1.307-.363a.365.365,0,0,0,.254-.448Z" transform="translate(-86.383 -432.248)" fill="darkgray" />
    </g>
  </g>
</svg>
