<svg xmlns="http://www.w3.org/2000/svg" width="25.467" height="22.92" viewBox="0 0 25.467 22.92">
  <g id="Group_6695" data-name="Group 6695" transform="translate(-2 -3)">
    <path id="Path_1402" data-name="Path 1402" d="M27.463,9.844H22.07a4.441,4.441,0,1,0,0,8.879h5.4v.39c0,4.278-2.593,6.807-6.981,6.807H8.983C4.593,25.92,2,23.391,2,19.113V9.8C2,5.519,4.593,3,8.983,3h11.5c4.388,0,6.981,2.519,6.981,6.8ZM8.035,9.835h7.2a.951.951,0,1,0-.009-1.9H8.035a.95.95,0,1,0,0,1.9Z" fill="#0c6fd1" fill-rule="evenodd"/>
    <path id="Path_1403" data-name="Path 1403" d="M16.048,12.952a2.57,2.57,0,0,0,2.541,2.041h4.138a.924.924,0,0,0,.914-.934V10.835a.927.927,0,0,0-.914-.935H18.491A2.527,2.527,0,0,0,16,12.46,2.593,2.593,0,0,0,16.048,12.952Z" transform="translate(3.827 1.886)" fill="#0c6fd1" opacity="0.4"/>
    <circle id="Ellipse_589" data-name="Ellipse 589" cx="1.273" cy="1.273" r="1.273" transform="translate(21.1 13.06)" fill="#0c6fd1"/>
  </g>
</svg>
