<svg xmlns="http://www.w3.org/2000/svg" xmlns:xlink="http://www.w3.org/1999/xlink" width="18" height="18" viewBox="0 0 18 18">
  <defs>
    <clipPath id="clip-path">
      <rect id="Rectangle_271" data-name="Rectangle 271" width="18" height="18" transform="translate(60 324)" fill="#c62b27" stroke="#707070" stroke-width="1"/>
    </clipPath>
  </defs>
  <g id="Mask_Group_63" data-name="Mask Group 63" transform="translate(-60 -324)" clip-path="url(#clip-path)">
    <g id="dashboard_2_" data-name="dashboard (2)" transform="translate(60 324)">
      <path id="Path_309" data-name="Path 309" d="M6.937,0H1.312A1.314,1.314,0,0,0,0,1.312V4.687A1.314,1.314,0,0,0,1.312,6H6.937A1.314,1.314,0,0,0,8.25,4.687V1.312A1.314,1.314,0,0,0,6.937,0Zm0,0" transform="translate(0 0)" fill="#c62b27"/>
      <path id="Path_310" data-name="Path 310" d="M6.937,11.667H1.312A1.314,1.314,0,0,0,0,12.979v7.875a1.314,1.314,0,0,0,1.312,1.312H6.937A1.314,1.314,0,0,0,8.25,20.854V12.979A1.314,1.314,0,0,0,6.937,11.667Zm0,0" transform="translate(0 -4.167)" fill="#c62b27"/>
      <path id="Path_311" data-name="Path 311" d="M22.1,18.667H16.479a1.314,1.314,0,0,0-1.313,1.313v3.375a1.314,1.314,0,0,0,1.313,1.312H22.1a1.314,1.314,0,0,0,1.312-1.312V19.979A1.314,1.314,0,0,0,22.1,18.667Zm0,0" transform="translate(-5.417 -6.667)" fill="#c62b27"/>
      <path id="Path_312" data-name="Path 312" d="M22.1,0H16.479a1.314,1.314,0,0,0-1.313,1.312V9.187A1.314,1.314,0,0,0,16.479,10.5H22.1a1.314,1.314,0,0,0,1.312-1.313V1.312A1.314,1.314,0,0,0,22.1,0Zm0,0" transform="translate(-5.417 0)" fill="#c62b27"/>
    </g>
  </g>
</svg>
