<?xml version="1.0" encoding="UTF-8"?>
<svg xmlns="http://www.w3.org/2000/svg" xmlns:xlink="http://www.w3.org/1999/xlink" width="18" height="18" viewBox="0 0 18 18">
  <defs>
    <clipPath id="clip-path">
      <rect id="Rectangle_1202" data-name="Rectangle 1202" width="18" height="18" transform="translate(334 129)" fill="#fff" stroke="#707070" stroke-width="1"></rect>
    </clipPath>
  </defs>
  <g id="Mask_Group_256" data-name="Mask Group 256" transform="translate(-334 -129)" clip-path="url(#clip-path)">
    <g id="garbage-can" transform="translate(335.926 129)">
      <path fill="black" id="Path_1176" data-name="Path 1176" d="M15.759,5.1a.527.527,0,0,0,.491-.721,3.345,3.345,0,0,0-3.1-2.091H12.5A2.8,2.8,0,0,0,9.777,0H8.652A2.8,2.8,0,0,0,5.924,2.285H5.277a3.345,3.345,0,0,0-3.1,2.091A.527.527,0,0,0,2.67,5.1ZM8.652,1.055H9.777a1.73,1.73,0,0,1,1.643,1.23H7.008A1.73,1.73,0,0,1,8.652,1.055Z" transform="translate(-2.141)"></path>
      <path fill="black" id="Path_1177" data-name="Path 1177" d="M4.256,17.214a1.588,1.588,0,0,0,1.578,1.47h7.036a1.588,1.588,0,0,0,1.578-1.47l.739-10.378H3.517Zm6.538-7.557a.527.527,0,1,1,1.053.053l-.281,5.625a.527.527,0,0,1-1.053-.053Zm-3.437-.5a.528.528,0,0,1,.553.5l.281,5.625a.527.527,0,0,1-1.053.053L6.856,9.71a.527.527,0,0,1,.5-.553Z" transform="translate(-2.278 -0.684)"></path>
    </g>
  </g>
</svg>
