<svg xmlns="http://www.w3.org/2000/svg" xmlns:xlink="http://www.w3.org/1999/xlink" width="80" height="80" viewBox="0 0 80 80">
  <defs>
    <filter id="Path_1371" x="0" y="2.911" width="77.536" height="77.089" filterUnits="userSpaceOnUse">
      <feOffset dy="3" input="SourceAlpha"/>
      <feGaussianBlur stdDeviation="10" result="blur"/>
      <feFlood flood-color="#1e3593" flood-opacity="0.702"/>
      <feComposite operator="in" in2="blur"/>
      <feComposite in="SourceGraphic"/>
    </filter>
    <filter id="Path_1372" x="10.021" y="0" width="69.979" height="69.283" filterUnits="userSpaceOnUse">
      <feOffset dy="3" input="SourceAlpha"/>
      <feGaussianBlur stdDeviation="10" result="blur-2"/>
      <feFlood flood-color="#1e3593" flood-opacity="0.702"/>
      <feComposite operator="in" in2="blur-2"/>
      <feComposite in="SourceGraphic"/>
    </filter>
  </defs>
  <g id="Group_6597" data-name="Group 6597" transform="translate(28 25)">
    <g transform="matrix(1, 0, 0, 1, -28, -25)" filter="url(#Path_1371)">
      <path id="Path_1371-2" data-name="Path 1371" d="M10.153,5.556a1.062,1.062,0,0,1,.1.329l.278,4.14.138,2.081a2.139,2.139,0,0,0,.1.631,1.043,1.043,0,0,0,1.005.631l6.657-.435a1.1,1.1,0,0,1,.774.3,1.06,1.06,0,0,1,.319.609l.012.14A8.682,8.682,0,0,1,12.652,21.8a8.856,8.856,0,0,1-9.592-4.263,8.214,8.214,0,0,1-1-3.146A6.019,6.019,0,0,1,2,13.4,8.7,8.7,0,0,1,8.984,4.925,1.091,1.091,0,0,1,10.153,5.556Z" transform="translate(28 25)" fill="white"/>
    </g>
    <g transform="matrix(1, 0, 0, 1, -28, -25)" filter="url(#Path_1372)">
      <path id="Path_1372-2" data-name="Path 1372" d="M12.87,2A9.444,9.444,0,0,1,22,9.812l-.007.033-.02.047,0,.13a.8.8,0,0,1-.192.472.828.828,0,0,1-.462.271l-.11.015-7.681.5a.917.917,0,0,1-.7-.227.884.884,0,0,1-.288-.537l-.515-7.67a.122.122,0,0,1,0-.08.784.784,0,0,1,.258-.555A.815.815,0,0,1,12.87,2Z" transform="translate(28 25)" fill="white" opacity="0.4"/>
    </g>
  </g>
</svg>
