<svg xmlns="http://www.w3.org/2000/svg" width="18" height="12" viewBox="0 0 18 12">
  <g id="Group_6598" data-name="Group 6598" transform="translate(-3 -6)">
    <path id="Path_1373" data-name="Path 1373" d="M8.2,13.19l-3.7.327a1.518,1.518,0,0,1,0-3.036l3.7.327a1.191,1.191,0,0,1,0,2.382Z" fill="#6dc447" opacity="0.4"/>
    <path id="Path_1374" data-name="Path 1374" d="M20.625,13.13c-.058.058-.274.305-.477.51a22.074,22.074,0,0,1-5.891,4.024,4.825,4.825,0,0,1-1.2.336,2,2,0,0,1-.91-.219,1.886,1.886,0,0,1-.808-.9,9.8,9.8,0,0,1-.261-1.064,23.634,23.634,0,0,1-.244-3.806,27.294,27.294,0,0,1,.216-3.688A8.267,8.267,0,0,1,11.4,6.991,1.815,1.815,0,0,1,13,6h.058a5.031,5.031,0,0,1,1.343.408,22.044,22.044,0,0,1,5.761,3.967,5.694,5.694,0,0,1,.491.554A1.768,1.768,0,0,1,21,11.992,1.856,1.856,0,0,1,20.625,13.13Z" fill="#6dc447"/>
  </g>
</svg>
