<svg xmlns="http://www.w3.org/2000/svg" xmlns:xlink="http://www.w3.org/1999/xlink" width="18" height="18" viewBox="0 0 18 18">
  <defs>
    <clipPath id="clip-path">
      <rect id="Rectangle_3310" data-name="Rectangle 3310" width="18" height="18" transform="translate(25 492)" fill="#e29b14" stroke="#707070" stroke-width="1"/>
    </clipPath>
  </defs>
  <g id="Mask_Group_277" data-name="Mask Group 277" transform="translate(-25 -492)" clip-path="url(#clip-path)">
    <g id="help_1_" data-name="help (1)" transform="translate(25 492)">
      <path id="Path_1241" data-name="Path 1241" d="M18,12.182a5.836,5.836,0,0,0-3.2-5.2A7.936,7.936,0,0,1,6.985,14.8a5.82,5.82,0,0,0,8.157,2.392l2.832.783-.783-2.832A5.8,5.8,0,0,0,18,12.182Zm0,0" fill="#e29b14"/>
      <path id="Path_1242" data-name="Path 1242" d="M13.746,6.873A6.873,6.873,0,1,0,.953,10.367L.025,13.721l3.354-.928a6.874,6.874,0,0,0,10.367-5.92Zm-7.928-1.6H4.764A2.109,2.109,0,1,1,8.3,6.83l-.9.82v.822H6.346V7.186L7.584,6.052a1.044,1.044,0,0,0,.343-.779,1.055,1.055,0,0,0-2.109,0Zm.527,4.254H7.4v1.055H6.346Zm0,0" fill="#e29b14"/>
    </g>
  </g>
</svg>
