<svg xmlns="http://www.w3.org/2000/svg" xmlns:xlink="http://www.w3.org/1999/xlink" width="18" height="18" viewBox="0 0 18 18">
  <defs>
    <clipPath id="clip-path">
      <rect id="Rectangle_1206" data-name="Rectangle 1206" width="18" height="18" transform="translate(37 320)" fill="#c62b27" stroke="#707070" stroke-width="1"/>
    </clipPath>
  </defs>
  <g id="Mask_Group_259" data-name="Mask Group 259" transform="translate(-37 -320)" clip-path="url(#clip-path)">
    <g id="fingerprint_2_" data-name="fingerprint (2)" transform="translate(37 320)">
      <path id="Path_1181" data-name="Path 1181" d="M15.36,3.612a.557.557,0,0,1-.379-.147,8.813,8.813,0,0,0-11.962,0,.563.563,0,0,1-.758-.832,9.939,9.939,0,0,1,13.479,0,.562.562,0,0,1-.38.978Z" fill="#c62b27"/>
      <path id="Path_1182" data-name="Path 1182" d="M16.312,7.288a.56.56,0,0,1-.467-.249A8.267,8.267,0,0,0,9,3.325,8.267,8.267,0,0,0,2.155,7.039a.563.563,0,1,1-.934-.627A9.391,9.391,0,0,1,9,2.2a9.39,9.39,0,0,1,7.78,4.211.561.561,0,0,1-.467.875Z" fill="#c62b27"/>
      <path id="Path_1183" data-name="Path 1183" d="M7.223,18a.562.562,0,0,1-.4-.166c-.123-.124-3.005-3.066-3.005-5.9A5.264,5.264,0,0,1,9,6.6a5.264,5.264,0,0,1,5.182,5.332.563.563,0,0,1-1.125,0A4.138,4.138,0,0,0,9,7.728a4.138,4.138,0,0,0-4.057,4.207c0,2.375,2.653,5.08,2.68,5.107a.562.562,0,0,1-.4.958Z" fill="#c62b27"/>
      <path id="Path_1184" data-name="Path 1184" d="M10.777,18c-1.353,0-4.489-2.574-4.793-5.44a3.637,3.637,0,0,1,.862-2.773A2.869,2.869,0,0,1,8.984,8.8H9a3,3,0,0,1,2.122.882,3.145,3.145,0,0,1,.928,2.248V12.3a1.571,1.571,0,1,0,3.139,0v-.128A6.463,6.463,0,0,0,9.412,5.542,6.024,6.024,0,0,0,4.853,7.179a6.571,6.571,0,0,0-.622,8.839.562.562,0,1,1-.879.7A7.7,7.7,0,0,1,4.085,6.357a7.134,7.134,0,0,1,5.4-1.939,7.59,7.59,0,0,1,6.827,7.755V12.3a2.7,2.7,0,1,1-5.389,0v-.367a2.029,2.029,0,0,0-.6-1.45A1.874,1.874,0,0,0,9,9.929H8.99a1.74,1.74,0,0,0-1.306.608,2.494,2.494,0,0,0-.582,1.9c.248,2.339,2.936,4.435,3.675,4.435a.562.562,0,1,1,0,1.124Z" fill="#c62b27"/>
      <path id="Path_1185" data-name="Path 1185" d="M12.864,16.9c-2.013,0-4.471-2.46-4.471-5.332a.563.563,0,1,1,1.125,0c0,2.226,1.871,4.207,3.346,4.207a.562.562,0,0,1,0,1.125Z" fill="#c62b27"/>
    </g>
  </g>
</svg>
