<svg version="1.0" xmlns="http://www.w3.org/2000/svg"
 width="1200.000000pt" height="800.000000pt" viewBox="0 0 1200.000000 800.000000"
 preserveAspectRatio="xMidYMid meet">

<g transform="translate(0.000000,800.000000) scale(0.100000,-0.100000)"
fill="red" stroke="none" >
<path d="M5200 6400 l0 -1600 -2600 0 -2600 0 0 -800 0 -800 2600 0 2600 0 0
-1600 0 -1600 800 0 800 0 0 1600 0 1600 2600 0 2600 0 0 800 0 800 -2600 0
-2600 0 0 1600 0 1600 -800 0 -800 0 0 -1600z"/>
<path d="M2310 7189 c0 -8 7 -52 15 -99 19 -112 45 -341 45 -407 l0 -53 -47 0
c-67 0 -301 26 -417 46 -54 9 -98 15 -100 13 -1 -2 2 -64 8 -137 6 -84 6 -180
0 -265 -6 -72 -10 -133 -9 -134 0 0 36 5 80 13 76 13 270 36 418 49 l67 6 0
-50 c0 -83 -31 -352 -56 -486 l-5 -30 270 0 c236 0 270 2 266 15 -17 56 -72
537 -62 546 10 10 507 -45 549 -61 10 -4 13 50 13 266 l0 270 -30 -5 c-134
-25 -403 -56 -486 -56 l-50 0 6 68 c13 147 36 341 49 417 8 44 13 81 13 82 -1
0 -45 -3 -97 -9 -93 -10 -393 -4 -424 8 -10 4 -16 1 -16 -7z"/>
<path d="M9153 7184 c10 -31 45 -292 52 -379 3 -44 8 -101 11 -127 l6 -48 -50
0 c-84 0 -353 31 -487 56 l-30 5 0 -270 c0 -216 3 -270 13 -266 42 16 539 71
549 61 10 -9 -45 -490 -62 -546 -4 -13 30 -15 266 -15 l270 0 -5 30 c-25 134
-56 403 -56 486 l0 50 68 -6 c147 -13 341 -36 417 -49 44 -8 80 -13 81 -13 0
1 -3 38 -7 82 -10 104 -10 280 0 375 4 41 7 77 5 79 -2 2 -46 -4 -100 -13
-116 -20 -350 -46 -416 -46 l-48 0 0 53 c0 63 25 286 45 416 9 52 14 95 13 96
-2 1 -46 -2 -98 -7 -95 -10 -374 -4 -419 8 -20 6 -22 4 -18 -12z"/>
<path d="M2314 2315 c25 -134 56 -403 56 -486 l0 -50 -67 6 c-129 12 -338 36
-418 50 -44 7 -80 13 -80 12 -1 -1 3 -62 9 -135 6 -84 6 -180 0 -265 -6 -72
-9 -134 -8 -135 1 -2 44 3 96 12 113 19 355 46 421 46 l47 0 0 -52 c0 -67 -25
-293 -46 -416 -9 -51 -15 -94 -13 -96 2 -1 64 2 137 8 84 6 180 6 265 0 72 -6
133 -10 134 -9 0 0 -5 36 -13 80 -13 76 -36 270 -49 418 l-6 67 50 0 c83 0
352 -31 486 -56 l30 -5 0 270 c0 265 0 270 -20 266 -132 -29 -545 -72 -545
-58 1 76 53 514 65 545 4 10 -53 13 -266 13 l-270 0 5 -30z"/>
<path d="M9155 2330 c14 -46 64 -464 65 -543 0 -14 -413 29 -545 58 -20 4 -20
-1 -20 -266 l0 -270 30 5 c134 25 403 56 486 56 l50 0 -6 -67 c-13 -148 -36
-342 -49 -418 -8 -44 -13 -80 -13 -80 1 -1 62 3 135 9 84 6 180 6 265 0 72 -6
133 -9 135 -8 2 1 -4 46 -13 99 -21 134 -45 349 -45 413 l0 52 48 0 c65 0 307
-27 420 -46 52 -9 95 -14 96 -12 2 1 -1 37 -5 78 -10 95 -10 271 0 375 4 44 7
81 7 82 -1 1 -37 -5 -81 -12 -80 -14 -289 -38 -417 -50 l-68 -6 0 51 c0 68 26
315 45 420 8 47 15 87 15 90 0 3 -121 5 -270 5 -235 0 -269 -2 -265 -15z"/>
</g>
</svg>
