<svg xmlns="http://www.w3.org/2000/svg" width="18" height="18" viewBox="0 0 18 18">
  <rect id="Rectangle_3377" data-name="Rectangle 3377" width="18" height="18" rx="7" fill="#52b925"/>
  <path id="Icon_ionic-ios-checkmark" data-name="Icon ionic-ios-checkmark" d="M20.382,13.1l-.817-.841a.176.176,0,0,0-.13-.056h0a.169.169,0,0,0-.13.056l-5.666,5.707-2.062-2.062a.18.18,0,0,0-.26,0l-.827.827a.185.185,0,0,0,0,.265l2.6,2.6a.822.822,0,0,0,.543.265.862.862,0,0,0,.539-.255h0l6.209-6.241A.2.2,0,0,0,20.382,13.1Z" transform="translate(-6.12 -7.003)" fill="#fff"/>
</svg>
