<svg xmlns="http://www.w3.org/2000/svg" xmlns:xlink="http://www.w3.org/1999/xlink" width="18" height="18" viewBox="0 0 18 18">
  <defs>
    <clipPath id="clip-path">
      <rect id="Rectangle_3272" data-name="Rectangle 3272" width="18" height="18" transform="translate(25 163)" fill="#c62b27" stroke="#707070" stroke-width="1"/>
    </clipPath>
  </defs>
  <g id="Mask_Group_269" data-name="Mask Group 269" transform="translate(-25 -163)" clip-path="url(#clip-path)">
    <g id="login" transform="translate(25 163)">
      <g id="Group_6355" data-name="Group 6355">
        <g id="Group_6354" data-name="Group 6354">
          <path id="Path_1220" data-name="Path 1220" d="M4.623,16.594H2.134a.714.714,0,0,1-.562-.267.735.735,0,0,1-.149-.616,7.768,7.768,0,0,1,7.4-6.152c.06,0,.119,0,.179,0s.121,0,.181,0a7.7,7.7,0,0,1,2.54.489.7.7,0,1,0,.494-1.316q-.175-.066-.351-.123a4.781,4.781,0,1,0-5.723,0A9.143,9.143,0,0,0,.046,15.424,2.136,2.136,0,0,0,2.134,18H4.623a.7.7,0,0,0,0-1.406Zm1-11.812A3.375,3.375,0,1,1,9.164,8.152L9,8.15l-.165,0A3.379,3.379,0,0,1,5.625,4.781Z" fill="#c62b27"/>
          <path id="Path_1221" data-name="Path 1221" d="M17.462,12.115A1.9,1.9,0,0,0,15.733,11h-2.2a1.861,1.861,0,0,0-1.759,1.189c-.037.1-.082.217-.129.358h-4.6a.7.7,0,0,0-.5.213L5.331,14.008a.7.7,0,0,0,0,.983l1.23,1.252a.7.7,0,0,0,.5.21H9.352a.7.7,0,1,0,0-1.406H7.361l-.542-.552.522-.538h4.834a.7.7,0,0,0,.683-.536,5.811,5.811,0,0,1,.231-.724.461.461,0,0,1,.448-.287h2.194a.48.48,0,0,1,.447.279,4.541,4.541,0,0,1,.416,1.792,4.675,4.675,0,0,1-.413,1.824.48.48,0,0,1-.442.288h-2.22a.5.5,0,0,1-.453-.311,4.674,4.674,0,0,1-.218-.7.7.7,0,1,0-1.368.327,6.051,6.051,0,0,0,.286.9A1.9,1.9,0,0,0,13.517,18h2.224a1.885,1.885,0,0,0,1.729-1.132,6.086,6.086,0,0,0,.53-2.39A5.953,5.953,0,0,0,17.462,12.115Z" fill="#c62b27"/>
          <circle id="Ellipse_578" data-name="Ellipse 578" cx="0.703" cy="0.703" r="0.703" transform="translate(14.449 13.781)" fill="#c62b27"/>
        </g>
      </g>
    </g>
  </g>
</svg>
