<svg xmlns="http://www.w3.org/2000/svg" xmlns:xlink="http://www.w3.org/1999/xlink" width="18" height="18" viewBox="0 0 18 18">
  <defs>
    <clipPath id="clip-path">
      <rect id="Rectangle_297" data-name="Rectangle 297" width="18" height="18" transform="translate(793.589 629)" stroke="#707070" stroke-width="1"/>
    </clipPath>
  </defs>
  <g id="Mask_Group_62" data-name="Mask Group 62" transform="translate(-793.589 -629)" opacity="0.5" clip-path="url(#clip-path)">
    <g id="happiness" transform="translate(793.589 629.559)">
      <path fill="rgba(0,0,0,0.8)" id="Path_286" data-name="Path 286" d="M5.929,11.6c0-1.689,2.19-1.959,2.19-2.89a.654.654,0,0,0-.712-.653,1.072,1.072,0,0,0-.845.554l-.633-.422a1.734,1.734,0,0,1,1.55-.937A1.4,1.4,0,0,1,9,8.634c0,1.5-2.1,1.762-2.118,2.646h2.19v.732H5.969A3.238,3.238,0,0,1,5.929,11.6Zm3.624-1.313,2.019-2.956h1.009V10.1h.607V10.8h-.607v1.207h-.838V10.8H9.553v-.522Zm2.19-.185V8.647a4.453,4.453,0,0,1,.033-.488h-.013a2.7,2.7,0,0,1-.231.429l-1.082,1.5V10.1h1.293Zm4.132-.248-.163.584A6.424,6.424,0,0,1,8.06,15.018,6.33,6.33,0,0,1,3.33,7.936l.968.27a.3.3,0,0,0,.374-.367L3.62,3.74a.3.3,0,0,0-.5-.141L.091,6.56a.3.3,0,0,0,.13.508l1.054.294a8.454,8.454,0,0,0,6.18,9.688A8.559,8.559,0,0,0,17.76,10.978l.156-.558a.3.3,0,0,0-.21-.373L16.249,9.64A.3.3,0,0,0,15.876,9.85ZM17.6,7.3l-1.529.2a.3.3,0,0,0-.261.339l.06.464a.3.3,0,0,0,.339.261l1.529-.2A.3.3,0,0,0,18,8.02l-.06-.464A.3.3,0,0,0,17.6,7.3ZM16.421,4.407l-1.343.757a.3.3,0,0,0-.115.412l.229.407a.3.3,0,0,0,.412.115l1.343-.757a.3.3,0,0,0,.115-.412l-.229-.407A.3.3,0,0,0,16.421,4.407ZM14.248,2.17l-.962,1.2a.3.3,0,0,0,.048.425l.365.292a.3.3,0,0,0,.425-.048l.962-1.2a.3.3,0,0,0-.048-.425l-.365-.292A.3.3,0,0,0,14.248,2.17ZM11.4.91l-.44,1.477a.3.3,0,0,0,.2.377l.448.134a.3.3,0,0,0,.376-.2l.44-1.477a.3.3,0,0,0-.2-.376L11.772.706A.3.3,0,0,0,11.4.91ZM8.278.81l.145,1.535a.3.3,0,0,0,.33.273l.465-.044a.3.3,0,0,0,.273-.33L9.346.709a.3.3,0,0,0-.33-.273L8.551.48A.3.3,0,0,0,8.278.81ZM5.351,1.885,6.06,3.253a.3.3,0,0,0,.408.129l.415-.215a.3.3,0,0,0,.129-.408L6.3,1.391A.3.3,0,0,0,5.9,1.262l-.415.215A.3.3,0,0,0,5.351,1.885Z" transform="translate(0 -0.435)"/>
    </g>
  </g>
</svg>
