<svg xmlns="http://www.w3.org/2000/svg" xmlns:xlink="http://www.w3.org/1999/xlink" width="16" height="16" viewBox="0 0 16 16">
  <defs>
    <clipPath id="clip-path">
      <rect id="Rectangle_574" data-name="Rectangle 574" width="16" height="16" transform="translate(1984 403)" fill="#000000" stroke="#707070" stroke-width="1"/>
    </clipPath>
  </defs>
  <g id="Mask_Group_145" data-name="Mask Group 145" transform="translate(-1984 -403)" clip-path="url(#clip-path)">
    <g id="spam" transform="translate(1984 404.299)">
      <path id="Path_543" fill="#2a3331" data-name="Path 543" d="M7.039,9.852,10.161,7.2l.457-.412A4.91,4.91,0,0,1,9.426,4.1H1.211a1.213,1.213,0,0,0-1.188.976l5.64,4.775A1.061,1.061,0,0,0,7.039,9.852Zm0,0"/>
      <path id="Path_544" fill="#2a3331" data-name="Path 544" d="M12.91,0l-3,1.645V3.552a4.4,4.4,0,0,0,2.639,4.029l.349.152.408-.176h0A4.395,4.395,0,0,0,16,3.505V1.647Zm.3,5.828a.257.257,0,1,1-.514,0V5.5a.257.257,0,1,1,.514,0Zm0-1.6a.257.257,0,1,1-.514,0V1.894a.257.257,0,1,1,.514,0Zm0,0"/>
      <path id="Path_545" fill="#2a3331" data-name="Path 545" d="M10.978,7.16l-.476.428-.006.005L7.371,10.244a1.573,1.573,0,0,1-2.04,0L0,5.731v6.46a1.2,1.2,0,0,0,.147.578L3.216,9.63a.257.257,0,1,1,.367.359l-3.1,3.17a1.2,1.2,0,0,0,.727.243H11.486a1.2,1.2,0,0,0,.725-.242L9.1,9.99a.257.257,0,1,1,.366-.36l3.087,3.141a1.2,1.2,0,0,0,.148-.58V8.264a.254.254,0,0,1,.006-.055l-.362-.158A4.925,4.925,0,0,1,10.978,7.16Zm0,0"/>
    </g>
  </g>
</svg>
