<svg id="Group_6608" data-name="Group 6608" xmlns="http://www.w3.org/2000/svg" width="20" height="18" viewBox="0 0 20 18">
  <path id="Path_1383" data-name="Path 1383" d="M21.25,13.476a1.476,1.476,0,1,1,0-2.952.754.754,0,0,0,.53-.217A.741.741,0,0,0,22,9.781V7.1A4.129,4.129,0,0,0,17.856,3H6.144A4.129,4.129,0,0,0,2,7.1V9.868a.741.741,0,0,0,.22.526.754.754,0,0,0,.53.217A1.41,1.41,0,0,1,4.239,12,1.484,1.484,0,0,1,2.75,13.476a.747.747,0,0,0-.75.743v2.675A4.129,4.129,0,0,0,6.143,21H17.857A4.129,4.129,0,0,0,22,16.895V14.219A.747.747,0,0,0,21.25,13.476Z" transform="translate(-2 -3)" fill="#6dc447" opacity="0.4"/>
  <path id="Path_1384" data-name="Path 1384" d="M15.431,11.589l-1.179,1.148.279,1.623a.741.741,0,0,1-1.076.779L12,14.374l-1.458.766a.739.739,0,0,1-1.072-.78l.278-1.623L8.568,11.589a.739.739,0,0,1,.413-1.262l1.626-.237.729-1.477A.738.738,0,0,1,12,8.2h0a.736.736,0,0,1,.662.413l.729,1.476,1.629.238a.739.739,0,0,1,.409,1.261Z" transform="translate(-2 -3)" fill="#6dc447"/>
</svg>
