<svg xmlns="http://www.w3.org/2000/svg" width="215.007" height="215.007" viewBox="0 0 215.007 215.007">
  <g id="Group_784" data-name="Group 784" transform="translate(-84.626 -149.836)">
    <path id="Path_808" data-name="Path 808" d="M76.052,0A76.016,76.016,0,1,1,0,76.052,75.931,75.931,0,0,1,76.052,0Z" transform="translate(84.626 257.34) rotate(-45)" fill="#e4dfea"/>
    <path id="Path_792" data-name="Path 792" d="M278.933,222.005a8.443,8.443,0,1,1,8.443-8.443A8.443,8.443,0,0,1,278.933,222.005Zm0-16.156a7.714,7.714,0,1,0,7.714,7.714A7.714,7.714,0,0,0,278.933,205.849Z" transform="translate(-46.106 -39.155)" fill="#c62b27"/>
    <path id="Path_793" data-name="Path 793" d="M292.374,235.358a4.039,4.039,0,1,1,4.025-4.025,4.039,4.039,0,0,1-4.025,4.025Zm0-7.291a1.373,1.373,0,1,0,0-.044Z" transform="translate(-38.013 -29.141)" fill="#9d39b5"/>
    <path id="Path_794" data-name="Path 794" d="M231.891,226.811a5.206,5.206,0,1,1,3.69-1.519,5.206,5.206,0,0,1-3.69,1.519Zm0-9.682a4.476,4.476,0,1,0,3.175,1.306A4.476,4.476,0,0,0,231.891,217.129Z" transform="translate(-65.904 -33.987)" fill="#9d39b5"/>
    <circle id="Ellipse_187" data-name="Ellipse 187" cx="2.391" cy="2.391" r="2.391" transform="translate(136.806 275.744)" fill="#c62b27"/>
    <rect id="Rectangle_1005" data-name="Rectangle 1005" width="11.621" height="0.729" transform="translate(117.425 289.484) rotate(-45)" fill="#9d39b5"/>
    <rect id="Rectangle_1006" data-name="Rectangle 1006" width="0.729" height="5.424" transform="translate(165.734 210.185) rotate(-45)" fill="#fff"/>
    <circle id="Ellipse_188" data-name="Ellipse 188" cx="51.167" cy="51.167" r="51.167" transform="translate(115.061 261.879) rotate(-81.82)" fill="#b8b2bf" opacity="0.2"/>
    <path id="Path_795" data-name="Path 795" d="M282.859,290.263c-5.745-4.243-32.079-15.923-42.286-19.743-.365-6.591-9.055-36.25-11.884-43.438a5.7,5.7,0,0,0-4.374-3.441,19.03,19.03,0,0,1,2.362-3.893c.263-.437.467-.831.656-1.21h0c2.143-3.135.948-7.291,1.385-8.924s-2.26-1.56-3.3,2.916c-2.012-3.383-3.864-10.484-8.457-6.008-6.285,6.124-3.354,15.894-2.114,19.175a6.287,6.287,0,0,0-1.356,1.356c-2.814,4.141-1.691,48.265,2.041,55.541l.117.175a3.441,3.441,0,0,0,.714.948c6.008,5.745,51.035,43.584,61.082,41.426C286.942,323.072,289.6,295.25,282.859,290.263Z" transform="translate(-72.689 -39.172)" fill="#e4dfea" style="mix-blend-mode: multiply;isolation: isolate"/>
    <path id="Path_796" data-name="Path 796" d="M266.354,204.271A56.25,56.25,0,0,0,233.5,311.74l-3.5,10.2-4.914,14.926c-1.648,4.956-3.193,9.941-4.8,14.911l-2.377,7.4-1.2,3.731-.6,1.866a2.477,2.477,0,0,0,.175,2.055c.16.292.335.6.525.875a11.77,11.77,0,0,0,16.3,3.367,2.463,2.463,0,0,0,1.137-1.72l.35-1.924.729-3.848,1.458-7.7c.948-5.131,1.954-10.2,2.916-15.392l2.756-15.436c.6-3.571,1.21-7.128,1.794-10.7a56.248,56.248,0,0,0,22.164-110.15ZM297.223,270.1a46.106,46.106,0,1,1-33.377-55.928A46.108,46.108,0,0,1,297.223,270.1Z" transform="translate(-79.216 -40.349)" fill="#c62b27"/>
    <path id="Path_797" data-name="Path 797" d="M311.128,330.514H234.021a4.52,4.52,0,0,1-4.506-4.914l.467-5.41h85.185l.481,5.41a4.535,4.535,0,0,1-4.52,4.914Z" transform="translate(-64.821 12.972)" fill="#632b6b"/>
    <path id="Path_798" data-name="Path 798" d="M268.118,269.449c-4.054-3.033-7.291-17.5-7.816-25.649l-8.749,9.974c3.66,13.663.948,13.211-4.739,18.65s1.458,15.529,15.908,12.161C275.452,281.61,272.157,272.482,268.118,269.449Z" transform="translate(-57.722 -21.681)" fill="#e4dfea"/>
    <path id="Path_799" data-name="Path 799" d="M246.72,241.826a3.8,3.8,0,0,1-.7-.073,3.558,3.558,0,0,1-2.45-1.823,5.206,5.206,0,0,1-.394-3.543,4.679,4.679,0,0,1,.146-.569c.875-2.8,3.485-4.71,5.833-4.258a3.091,3.091,0,0,1,.831.277,3.7,3.7,0,0,1,1.983,2.493,5.746,5.746,0,0,1-.1,3.164h0A5.833,5.833,0,0,1,246.72,241.826Zm1.721-9.974a5.5,5.5,0,0,0-4.768,4.068,2.286,2.286,0,0,0-.131.525,4.768,4.768,0,0,0,.35,3.31,3.193,3.193,0,0,0,2.2,1.648c2.173.408,4.608-1.385,5.424-4.01a5.337,5.337,0,0,0,.087-2.916,3.368,3.368,0,0,0-1.779-2.26,2.464,2.464,0,0,0-.744-.233,3.088,3.088,0,0,0-.642-.131Z" transform="translate(-58.513 -27.229)" fill="#a394b2"/>
    <path id="Path_800" data-name="Path 800" d="M243.672,239.979l-.1-.175a5.206,5.206,0,0,1-.394-3.543h0l6.62-4.491h.087a3.733,3.733,0,0,1,2,2.508v.117Zm-.146-3.572a4.812,4.812,0,0,0,.277,3.033l7.772-5.264a3.339,3.339,0,0,0-1.662-2.1Z" transform="translate(-58.512 -27.103)" fill="#a394b2"/>
    <path id="Path_801" data-name="Path 801" d="M248.019,235.327c-5.585,9.172-11.563,29.7,6.153,27.472C278.29,259.766,264.2,208.789,248.019,235.327Z" transform="translate(-58.848 -28.972)" fill="#e4dfea"/>
    <path id="Path_802" data-name="Path 802" d="M220.3,226.642c-.9-3.091,1.312-4.593,3.033-6.882s2.362-3.718.35-6.2-2.391-12.1-8.239-7.072c-8.676,7.451-4.374,20.312-4.374,20.312Z" transform="translate(-73.466 -39.185)" fill="#e4dfea"/>
    <path id="Path_803" data-name="Path 803" d="M315.668,292.972c-2.77-7.9-16.827-10.79-29.323-11.549l-16.594,1.356c-8.137-5.089-28.521-14.582-37.168-18.023.525-6.591-4.112-36.25-5.949-43.438-1.458-5.833-12.176-3.806-15.223,0-3.383,4.141-8.282,48.265-5.526,55.541a.976.976,0,0,0,.087.175,2.829,2.829,0,0,0,.569.948c3.631,4,24,23.491,39.56,34.281-3.6,22.776-6.27,56.62-6.27,56.62h87.489S324.767,318.97,315.668,292.972Z" transform="translate(-75.897 -34.001)" fill="#9d39b5"/>
    <path id="Path_804" data-name="Path 804" d="M220.141,217.42c2.552-3.135,1.925-7.291,2.581-8.924s-2.041-1.56-3.675,2.916C218.027,214.052,220.141,217.42,220.141,217.42Z" transform="translate(-69.485 -38.055)" fill="#e4dfea"/>
    <path id="Path_805" data-name="Path 805" d="M299.66,272.939c-2.771-7.9-16.827-10.79-29.323-11.549l-19.831,1.618h-.146a12.9,12.9,0,0,0-9.041,18.3,49,49,0,0,0,2.333,4.374c6.022,10.557-6.489,29.484,2.916,43.365,11.665,17.367,43.336,21.872,64.567,16.273C310.334,333.729,307.33,294.869,299.66,272.939Z" transform="translate(-60.035 -13.968)" fill="#e4dfea" style="mix-blend-mode: multiply;isolation: isolate"/>
    <path id="Path_806" data-name="Path 806" d="M332.512,282.807a29.3,29.3,0,0,1-8.107-9.449,23.331,23.331,0,0,1,10.834,10.513l.642-.335c-3.091-6.153-7.407-8.866-12.059-11.315-2.566-5.351-3.208-10.513-6.489-15.281-3.485-5.074-8.749-5.949-13.809-7.743-2.333-6.474-5-13.123-14.188-18.956-2.712-5-7.976-8.749-22.383-7.859a22.92,22.92,0,0,0-3.573.5,18.272,18.272,0,0,0-5.614,2.2c-3.864,1.181-9.011,4.272-10.6,8.647-1.123,3.135-.321,6.43,2.391,9.813a35.986,35.986,0,0,0,.744,4.9c2.479,10.951,3.47,17.221-4.491,23.33s-5.833,14.582.16,25.182-6.489,29.484,2.916,43.38c8.88,13.211,29.338,18.956,47.959,18.519a72.823,72.823,0,0,0,15.952-2.085c7.087-1.779,13.123-4.7,16.871-8.618C344.7,332.457,346.364,293.67,332.512,282.807Zm-81.525-49.8a22.326,22.326,0,0,0-1.458,9.157,8.749,8.749,0,0,1-1.633-8.224c1.152-3.179,4.374-5.687,7.553-7.189a16.448,16.448,0,0,0-4.462,6.255Zm38.991-1.458c7.889,5.424,10.5,11.417,12.657,17.323a22.018,22.018,0,0,1-4.958-2.508c-5.016-3.514-5.366-9.624-7.7-14.829Z" transform="translate(-60.021 -31.616)" fill="#c62b27"/>
    <path id="Path_807" data-name="Path 807" d="M309.483,356.576a72.818,72.818,0,0,1-15.952,2.085c-2.071-8.355-6.824-14.013-12.569-20.822-5.016-5.964-10.717-12.73-14.582-21.974-5.672-13.59-5.074-25.605-4.564-36.206.744-15,1.458-28.186-14.086-46.821a16.608,16.608,0,0,1,12.394-10.207c19.408,23.505,18.519,41.6,17.717,57.772-.5,10.207-.933,18.956,3.339,29.236,2.916,6.985,7.291,12.249,12.044,17.833C299.626,335.1,306.741,343.555,309.483,356.576Z" transform="translate(-56.526 -31.443)" fill="#d33d3d"/>
  </g>
</svg>
