<svg id="_1" data-name="1" xmlns="http://www.w3.org/2000/svg" width="175" height="202" viewBox="0 0 175 202">
  <g id="_1-2" data-name="1" transform="translate(-105 91.1)" style="isolation: isolate">
    <g id="Objects" transform="translate(105 -91.1)">
      <ellipse id="Ellipse_182" data-name="Ellipse 182" cx="87.5" cy="88.073" rx="87.5" ry="88.073" transform="translate(0 12.522)" fill="#e4dfea"/>
      <path id="Path_742" data-name="Path 742" d="M135.265,143.527a9.758,9.758,0,1,1,9.742-9.758,9.758,9.758,0,0,1-9.742,9.758Zm0-18.674a8.916,8.916,0,1,0,8.9,8.916,8.916,8.916,0,0,0-8.9-8.916Z" transform="translate(1.31 -107.358)" fill="#c62b27"/>
      <path id="Path_743" data-name="Path 743" d="M122.552,123.433a4.652,4.652,0,1,1,4.652-4.652,4.652,4.652,0,0,1-4.652,4.652Zm0-8.427a1.581,1.581,0,1,0,0-.034Z" transform="translate(-3.729 -114.13)" fill="#9d39b5"/>
      <path id="Path_744" data-name="Path 744" d="M55.857,162.287a6.034,6.034,0,1,1,4.277-1.761,6.034,6.034,0,0,1-4.277,1.761Zm0-11.208a5.191,5.191,0,1,0,5.191,5.174,5.191,5.191,0,0,0-5.191-5.174Z" transform="translate(-49.486 -89.441)" fill="#9d39b5"/>
      <circle id="Ellipse_183" data-name="Ellipse 183" cx="2.764" cy="2.764" r="2.764" transform="translate(14.107 22.315)" fill="#c62b27"/>
      <rect id="Rectangle_1001" data-name="Rectangle 1001" width="0.843" height="13.433" transform="translate(13.472 39.461) rotate(-45)" fill="#9d39b5"/>
      <rect id="Rectangle_1002" data-name="Rectangle 1002" width="6.27" height="0.843" transform="translate(145.075 68.732) rotate(-45)" fill="#fff"/>
      <path id="Path_745" data-name="Path 745" d="M184.563,211.93a38.652,38.652,0,0,1-7.646-14.629c4.725,4.18,8.9,8.764,10.885,16.77l.8-.2c-2.154-8.764-6.845-13.483-12.037-18-1.77-7.652-1.068-14.511-3.89-21.607-2.988-7.567-9.416-10.213-15.443-14.039-1.169-9.438-2.755-19.18-14.207-30.051-2.888-5.831-9.332-11.09-25.393-14.6-9.082-1.972-27.914,8.427-27.914,28.23,0,14.815-.551,23.174-12.438,28.652S65.6,189.582,70.237,204.919,53.542,240.953,61.4,261.531c13.039,33.977,91.821,24.775,115.561,9S199.1,229.93,184.563,211.93Zm-33.89-57.017c-6.01-6.624-4.007-15.034-6.678-22.685,9.65,9.843,11.319,18.758,12.4,27.4a29.626,29.626,0,0,1-5.726-4.719Z" transform="translate(-42.764 -113.301)" fill="#c62b27"/>
      <path id="Path_746" data-name="Path 746" d="M92.45,165.278c-11.8,7.331-30.337,56.056-30.86,66.286-1.365,10.416-3.876,35.865-1.213,51.927H80.383c2.713-6.64,9.927-42.961,12.354-52.77h0c3.59-9.455,10.23-47.949,11.41-57.421C105.411,163.02,103.759,158.284,92.45,165.278Z" transform="translate(-43.068 -81.491)" fill="#9d39b5"/>
      <path id="Path_747" data-name="Path 747" d="M82.822,178.095c-6.742,4.2-12.59,25.9-14.056,36.286s-4.719,33.927-3.708,44.865c1.062,11.7,13.483,12.64,14.107,11.242,1.517-3.792,4.652-45.2,6.017-50.815h0c2.006-5.41,5.73-27.421,6.388-32.848C92.277,180.943,89.159,174.1,82.822,178.095Z" transform="translate(-39.187 -71.252)" fill="#e4dfea" style="mix-blend-mode: multiply;isolation: isolate"/>
      <path id="Path_748" data-name="Path 748" d="M175.555,239.608H73.859a5.983,5.983,0,0,1-5.949-6.506l.624-7.112H180.881l.624,7.112a5.983,5.983,0,0,1-5.949,6.506Z" transform="translate(-37.752 -37.608)" fill="#632b6b"/>
      <path id="Path_749" data-name="Path 749" d="M117.129,159.026a45.235,45.235,0,0,0-10.972.758c-7.449,1.449-18.539,4.129-25.281,9.051C72.449,175.071,77.1,273.16,77.1,273.16h62.461s3.1-103.146-2.225-108.893C133.848,160.509,123.7,159.346,117.129,159.026Z" transform="translate(-32.19 -83.548)" fill="#fff"/>
      <path id="Path_750" data-name="Path 750" d="M116.092,172.663c-5.343-3.994-9.674-23.174-10.315-33.843L94.25,152C99.087,170,95.5,169.41,88,176.573s1.955,20.477,20.983,16.045C125.767,188.691,121.418,176.657,116.092,172.663Z" transform="translate(-25.651 -97.249)" fill="#e4dfea"/>
      <path id="Path_751" data-name="Path 751" d="M102.188,138.82,90.66,152a69.355,69.355,0,0,1,2.022,9.539,17.359,17.359,0,0,0,11.612-8.545,95.447,95.447,0,0,1-2.107-14.174Z" transform="translate(-22.058 -97.242)" fill="#c7bed3"/>
      <path id="Path_752" data-name="Path 752" d="M90.024,130.523c-7.365,12.084-15.169,39.168,8.107,36.219C129.918,162.748,111.361,95.517,90.024,130.523Z" transform="translate(-27.541 -109.793)" fill="#e4dfea"/>
      <path id="Path_753" data-name="Path 753" d="M103.62,158.9s3.489,54.185,3.994,115.23H157.62s-3.371-65.73-15.337-100.011C138.642,163.7,120.1,159.894,103.62,158.9Z" transform="translate(-13.587 -83.591)" fill="#9d39b5"/>
      <path id="Path_754" data-name="Path 754" d="M151.3,197h-.438c-4.433,0-29.511,11.225-45.185,19.1.2,8.427.371,17.326.472,26.359,10.112-.455,32.022-4.635,49.028-9.135C154.421,223.73,153.191,210.652,151.3,197Z" transform="translate(-12.176 -57.477)" fill="#e4dfea" style="mix-blend-mode: multiply;isolation: isolate"/>
      <path id="Path_755" data-name="Path 755" d="M102.428,160.17s-.961,51.826,0,113.09H67.22S73.557,193.2,80.7,175.372C84.478,165.833,92.13,162.125,102.428,160.17Z" transform="translate(-37.845 -82.72)" fill="#9d39b5"/>
      <path id="Path_756" data-name="Path 756" d="M104.917,119.51a55.853,55.853,0,0,0-18.27,1.685c-1.281,10.584,9.977,13.365,15.3,21.168l2.326,3.371c-8.9-4.635-16.112-13.7-17.225-16.618l-.792.3c1.213,3.135,9.27,13.213,18.994,17.713,5.7,8.107,13.837,17.949,19.045,9.775C130.619,147.033,116.412,120.033,104.917,119.51Z" transform="translate(-25.108 -110.544)" fill="#d33d3d"/>
      <path id="Path_757" data-name="Path 757" d="M116.208,173.808c3.017,9.893,20.916,58.028,24.893,61.837s35.09,10.955,33.556.809-35.393-67.416-48.3-72.472C114.017,158.943,113.191,163.881,116.208,173.808Z" transform="translate(-6.298 -81.427)" fill="#9d39b5"/>
      <path id="Path_758" data-name="Path 758" d="M97.533,143.994c.253-3.371,2.511-9.742,6.64-5.9C109.786,143.32,96.775,153.786,97.533,143.994Z" transform="translate(-17.439 -98.552)" fill="#e4dfea"/>
      <path id="Path_759" data-name="Path 759" d="M92.549,202.929a14.461,14.461,0,0,1-2.511-2.68,3.371,3.371,0,0,0-5.208-.64l-8.8,8.764a3.742,3.742,0,0,0,.084,5.309l9.354,9.388a3.051,3.051,0,0,1-.388,4.719,11.951,11.951,0,0,0-2.174,1.871,13.534,13.534,0,1,0,19.449,18.826,12.458,12.458,0,0,0,1.551-1.888,3.051,3.051,0,0,1,4.7-.32l9.354,9.371a3.758,3.758,0,0,0,5.309.118L132.089,247a3.371,3.371,0,0,0-.556-5.174,12.912,12.912,0,0,1-1.82-1.534,13.264,13.264,0,0,1,.1-19.2,13.483,13.483,0,0,1,18.135.607,14.088,14.088,0,0,1,1.685,2.022,3.371,3.371,0,0,0,5.056.64l8.865-8.815a3.775,3.775,0,0,0-.1-5.326l-9.219-9.371a3.067,3.067,0,0,1,.388-4.719,12.64,12.64,0,0,0,2.191-1.871,13.529,13.529,0,1,0-20.983-16.938,3.051,3.051,0,0,1-4.7.32l-9.337-9.388a3.758,3.758,0,0,0-5.326-.1l-8.815,8.764a3.371,3.371,0,0,0,.556,5.157,15.807,15.807,0,0,1,1.82,1.551,13.018,13.018,0,0,1-17.478,19.3Z" transform="translate(-32.899 -77.968)" fill="#e4dfea" style="mix-blend-mode: multiply;isolation: isolate"/>
      <path id="Path_760" data-name="Path 760" d="M165.548,215.763l-9.2,8.815a3.371,3.371,0,0,1-5.056-.624,12.623,12.623,0,0,0-1.685-2.039,13.281,13.281,0,0,0-18.961,18.539A15,15,0,0,0,132.329,242a3.371,3.371,0,0,1,.371,5.157l-9.152,8.764a3.758,3.758,0,0,1-5.309-.118l-1.3-1.365-7.7-8.006a.894.894,0,0,0-.236-.2,3,3,0,0,0-4.466.522,13.116,13.116,0,0,1-1.685,1.888,13.281,13.281,0,0,1-14.039,2.764,13.129,13.129,0,0,1-5.056-3.506,13.483,13.483,0,0,1,.354-18.084,13.72,13.72,0,0,1,2.258-1.871,3.084,3.084,0,0,0,.573-4.719l-8.882-9.286a3.758,3.758,0,0,1,.1-5.326l9.135-8.764a3.371,3.371,0,0,1,5.208.64,13.276,13.276,0,1,0,20.6-16.6,12.893,12.893,0,0,0-1.534-1.365l-.236-.185a3.371,3.371,0,0,1-.354-5.174l3.371-3.287,5.713-5.478a3.775,3.775,0,0,1,5.326.118l4.888,5.056,1.938,2.022,2.157,2.258a3.051,3.051,0,0,0,4.7-.32,13.113,13.113,0,0,1,1.685-1.888,12.81,12.81,0,0,1,2.781-2.039,13.281,13.281,0,0,1,16.045,20.865,13.719,13.719,0,0,1-2.258,1.871,3.1,3.1,0,0,0-.573,4.719l9,9.371a3.775,3.775,0,0,1-.2,5.326Z" transform="translate(-31.557 -77.791)" fill="#c62b27"/>
      <path id="Path_761" data-name="Path 761" d="M125.5,173.591l-23.6,71.966a3.084,3.084,0,0,0-2.107,1.264,13.11,13.11,0,0,1-1.685,1.888,13.281,13.281,0,0,1-14.039,2.764L98.918,206.3a13.112,13.112,0,0,0,7.854-2.714,13.281,13.281,0,0,0,1.5-19.719,12.893,12.893,0,0,0-1.534-1.365l2.848-8.646,5.713-5.478a3.775,3.775,0,0,1,5.326.118Z" transform="translate(-26.581 -77.805)" fill="#d33d3d"/>
      <path id="Path_762" data-name="Path 762" d="M130.527,171.07l-26.579,80.9-7.7-8.006a.894.894,0,0,0-.236-.2l23.242-70.685,2.157,2.258a3.051,3.051,0,0,0,4.7-.32,13.113,13.113,0,0,1,1.685-1.888A12.809,12.809,0,0,1,130.527,171.07Z" transform="translate(-18.554 -75.25)" fill="#d33d3d"/>
      <path id="Path_763" data-name="Path 763" d="M113.456,212.48c-3.371,2.646-7.1,2.444-10.753,1.483-1.551-.4-2.663-.978-3.59-1.213h-.185c-1.888-.489-5.056.135-7.348-.1s.27,2.461,3.506,3.2c-2.764,3.118-9,5.292-.809,9.522a22.753,22.753,0,0,0,24-1.551Z" transform="translate(-22.418 -46.868)" fill="#e4dfea"/>
      <path id="Path_764" data-name="Path 764" d="M104.147,220.566c8.427-6.135,45.893-26.966,51.4-27.472s34.382,18.1,26.848,25.062-64.045,23.157-70.786,21.051C105.546,237.319,97.726,225.285,104.147,220.566Z" transform="translate(-15.203 -60.161)" fill="#9d39b5"/>
      <path id="Path_765" data-name="Path 765" d="M92.232,131.355a4.3,4.3,0,0,0-2.8-2.41,3.64,3.64,0,0,0-.994-.135c-2.747,0-5.309,2.747-5.68,6.1a2.36,2.36,0,0,0,0,.691,5.933,5.933,0,0,0,1.2,3.927,4.163,4.163,0,0,0,3.185,1.551c2.764,0,5.326-2.747,5.7-6.118h0a6.354,6.354,0,0,0-.607-3.607Zm-9.051,3.607c.371-3.152,2.73-5.73,5.275-5.73a3.372,3.372,0,0,1,.758.1L83.148,135.4A1.714,1.714,0,0,0,83.182,134.962Zm9.236,0c-.371,3.152-2.73,5.73-5.292,5.73a3.624,3.624,0,0,1-2.848-1.4h0l7.635-7.635a6.27,6.27,0,0,1,.489,3.27Z" transform="translate(-27.374 -104.068)" fill="#fff"/>
      <path id="Path_766" data-name="Path 766" d="M98.615,130.344a3.994,3.994,0,0,0-3.152-1.534c-2.747,0-5.309,2.747-5.68,6.118a6.422,6.422,0,0,0,.539,3.556A4.213,4.213,0,0,0,93,140.928a3.826,3.826,0,0,0,1.045.152c2.764,0,5.326-2.747,5.68-6.1a6.186,6.186,0,0,0,0-.775A5.814,5.814,0,0,0,98.615,130.344Zm-8.427,4.618c.371-3.152,2.73-5.73,5.275-5.73a3.556,3.556,0,0,1,2.815,1.382h0l-7.618,7.6A6.034,6.034,0,0,1,90.188,134.962Zm3.944,5.7a3.372,3.372,0,0,1-.809-.118l6.118-6.118v.506c-.472,3.152-2.831,5.73-5.393,5.73Z" transform="translate(-22.674 -104.068)" fill="#fff"/>
    </g>
  </g>
</svg>
