<svg xmlns="http://www.w3.org/2000/svg" width="17" height="20" viewBox="0 0 17 20">
  <g id="Group_6759" data-name="Group 6759" transform="translate(-3.5 -2)">
    <path id="Path_1406" data-name="Path 1406" d="M18.809,9.021c-.451,0-1.05-.01-1.794-.01a3.336,3.336,0,0,1-3.309-3.336V2.459A.456.456,0,0,0,13.253,2H7.964A4.489,4.489,0,0,0,3.5,6.509V17.284A4.692,4.692,0,0,0,8.17,22h7.877A4.476,4.476,0,0,0,20.5,17.5V9.471a.453.453,0,0,0-.452-.458C19.625,9.016,19.118,9.021,18.809,9.021Z" fill="#fff" opacity="0.4"/>
    <path id="Path_1407" data-name="Path 1407" d="M16.084,2.567a.477.477,0,0,0-.821.334V5.538A2.026,2.026,0,0,0,17.28,7.554c.7.008,1.665.01,2.487.008a.477.477,0,0,0,.343-.808C19.055,5.657,17.166,3.691,16.084,2.567Z" fill="#fff" opacity="0.4"/>
    <path id="Path_1408" data-name="Path 1408" d="M8.974,11.388h3.385a.744.744,0,1,0,0-1.489H8.974a.744.744,0,0,0,0,1.489Zm0,4.994h5.444a.744.744,0,1,0,0-1.489H8.974a.744.744,0,0,0,0,1.489Z" fill="#fff" fill-rule="evenodd"/>
  </g>
</svg>
