<svg xmlns="http://www.w3.org/2000/svg" width="23.821" height="21.258" viewBox="0 0 23.821 21.258">
  <path id="Icon_payment-card" data-name="Icon payment-card" d="M12.459,27.411l-1.452-.2q-2.152-.291-4.3-.582c-.395-.054-.394-.059-.394-.455,0-1.8,0-3.609,0-5.413a.325.325,0,0,1,.208-.347q4.054-2,8.1-4.028a.28.28,0,0,1,.307.013c1.653.981,3.31,1.955,4.962,2.939a1.143,1.143,0,0,0,.62.168c1.4-.008,2.793,0,4.191,0A1.5,1.5,0,0,1,26.3,21.049q.015,3.388,0,6.776a1.5,1.5,0,0,1-1.591,1.522l-10.687,0a1.528,1.528,0,0,1-1.56-1.5c0-.137,0-.275,0-.435ZM14,22.019c.058.005.1.013.149.013,1.063,0,2.126.006,3.189,0a2.013,2.013,0,0,1,1.342.429,1.861,1.861,0,0,1,.588,2.088A1.9,1.9,0,0,1,17.454,25.8c-1.083,0-2.166,0-3.249,0-.167,0-.24.031-.232.216.016.355,0,.711.008,1.067a.771.771,0,0,0,.68.761,2.852,2.852,0,0,0,.38.011c2.928,0,5.856-.008,8.784.008a.873.873,0,0,0,.962-.941c-.025-1.679-.01-3.359-.01-5.039A.778.778,0,0,0,23.894,21q-4.522,0-9.045,0A.8.8,0,0,0,14,22.019Z" transform="translate(-13.635 -1.007) rotate(-30)" fill="#303030"/>
</svg>
