<svg xmlns="http://www.w3.org/2000/svg" width="16" height="15.901" viewBox="0 0 16 15.901">
  <g id="Group_6599" data-name="Group 6599" transform="translate(-2 -2)">
    <path id="Path_1376" data-name="Path 1376" d="M17.548,2.463A1.551,1.551,0,0,0,16,2.063L3.126,5.783A1.532,1.532,0,0,0,2.02,6.993a1.789,1.789,0,0,0,.8,1.673l4.026,2.459a1.047,1.047,0,0,0,1.288-.153L12.746,6.36a.588.588,0,0,1,.848,0,.6.6,0,0,1,0,.848L8.976,11.819a1.049,1.049,0,0,0-.154,1.288l2.46,4.042a1.6,1.6,0,0,0,1.529.744,1.556,1.556,0,0,0,1.3-1.1l3.818-12.78A1.555,1.555,0,0,0,17.548,2.463Z" fill="#fff"/>
    <path id="Path_1377" data-name="Path 1377" d="M3.011,16.808a.75.75,0,0,1-.53-1.28l1.365-1.366a.75.75,0,0,1,1.061,1.061L3.541,16.588A.744.744,0,0,1,3.011,16.808ZM6.772,18a.75.75,0,0,1-.53-1.28l1.365-1.366a.75.75,0,0,1,1.061,1.061L7.3,17.78A.744.744,0,0,1,6.772,18Zm.254,3.568a.748.748,0,0,0,1.06,0L9.451,20.2A.75.75,0,0,0,8.39,19.142L7.025,20.508A.749.749,0,0,0,7.025,21.568Z" transform="translate(0 -3.967)" fill="#fff" fill-rule="evenodd" opacity="0.4"/>
  </g>
</svg>
