<svg xmlns="http://www.w3.org/2000/svg" xmlns:xlink="http://www.w3.org/1999/xlink" width="80.04" height="80.04" viewBox="0 0 80.04 80.04">
  <defs>
    <filter id="Path_1375" x="0" y="1.908" width="78.132" height="78.132" filterUnits="userSpaceOnUse">
      <feOffset dy="3" input="SourceAlpha"/>
      <feGaussianBlur stdDeviation="10" result="blur"/>
      <feFlood flood-color="#0076ff" flood-opacity="0.502"/>
      <feComposite operator="in" in2="blur"/>
      <feComposite in="SourceGraphic"/>
    </filter>
    <filter id="Ellipse_581" x="15.04" y="0" width="65" height="65" filterUnits="userSpaceOnUse">
      <feOffset dy="3" input="SourceAlpha"/>
      <feGaussianBlur stdDeviation="10" result="blur-2"/>
      <feFlood flood-color="#0076ff" flood-opacity="0.502"/>
      <feComposite operator="in" in2="blur-2"/>
      <feComposite in="SourceGraphic"/>
    </filter>
  </defs>
  <g id="Group_6670" data-name="Group 6670" transform="translate(-18 -256.04)">
    <g transform="matrix(1, 0, 0, 1, 18, 256.04)" filter="url(#Path_1375)">
      <path id="Path_1375-2" data-name="Path 1375" d="M15.34,4.743a4.039,4.039,0,0,0,4.792,3.98v8.031c0,3.379-1.993,5.378-5.377,5.378H7.385c-3.392,0-5.385-2-5.385-5.378V9.4C2,6.017,3.993,4,7.385,4H15.41A3.856,3.856,0,0,0,15.34,4.743ZM13.232,14.976l2.879-3.715v-.018a.76.76,0,0,0-.142-1.053.736.736,0,0,0-1.045.15L12.5,13.464,9.733,11.288a.745.745,0,0,0-1.054.142L5.7,15.268a.725.725,0,0,0-.159.46.744.744,0,0,0,1.373.433l2.489-3.219,2.764,2.167a.745.745,0,0,0,1.063-.133Z" transform="translate(28 24.91)" fill="#0076ff" fill-rule="evenodd"/>
    </g>
    <g transform="matrix(1, 0, 0, 1, 18, 256.04)" filter="url(#Ellipse_581)">
      <circle id="Ellipse_581-2" data-name="Ellipse 581" cx="2.5" cy="2.5" r="2.5" transform="translate(45.04 27)" fill="#0076ff" opacity="0.4"/>
    </g>
  </g>
</svg>
