<svg xmlns="http://www.w3.org/2000/svg" xmlns:xlink="http://www.w3.org/1999/xlink" width="18" height="18" viewBox="0 0 18 18">
  <defs>
    <clipPath id="clip-path">
      <rect id="Rectangle_296" data-name="Rectangle 296" width="18" height="18" transform="translate(793.589 530)" fill="#ec4148" stroke="#707070" stroke-width="1"/>
    </clipPath>
  </defs>
  <g id="Mask_Group_61" data-name="Mask Group 61" transform="translate(-793.589 -530)" clip-path="url(#clip-path)">
    <g id="business" transform="translate(793.589 530)">
      <g id="Group_89" data-name="Group 89" transform="translate(0 9.499)">
        <g id="Group_88" data-name="Group 88">
          <path id="Path_282" data-name="Path 282" d="M14.559,13.2l-2.3-2.3a.527.527,0,0,0-.664-.067A4.768,4.768,0,0,1,4.3,7.81a.527.527,0,0,0-.517-.422H.527A.527.527,0,0,0,0,7.98a9.039,9.039,0,0,0,8.963,7.909,8.941,8.941,0,0,0,5.543-1.9.527.527,0,0,0,.049-.789Z" transform="translate(0 -7.388)" fill="#ec4148"/>
        </g>
      </g>
      <g id="Group_91" data-name="Group 91" transform="translate(0)">
        <g id="Group_90" data-name="Group 90">
          <path id="Path_283" data-name="Path 283" d="M8.258.132A.528.528,0,0,0,7.843,0,9.041,9.041,0,0,0,0,7.843a.527.527,0,0,0,.523.592H3.779A.527.527,0,0,0,4.3,8.013,4.771,4.771,0,0,1,8.013,4.3a.527.527,0,0,0,.422-.517V.527A.528.528,0,0,0,8.258.132Z" transform="translate(0 0)" fill="#ec4148"/>
        </g>
      </g>
      <g id="Group_93" data-name="Group 93" transform="translate(9.499 0)">
        <g id="Group_92" data-name="Group 92">
          <path id="Path_284" data-name="Path 284" d="M7.98,0a.527.527,0,0,0-.592.523V3.779A.527.527,0,0,0,7.81,4.3a4.768,4.768,0,0,1,3.023,7.3.527.527,0,0,0,.067.664l2.3,2.3a.527.527,0,0,0,.373.154h.033a.527.527,0,0,0,.383-.2,8.941,8.941,0,0,0,1.9-5.543A9.039,9.039,0,0,0,7.98,0Z" transform="translate(-7.388 0)" fill="#ec4148"/>
        </g>
      </g>
      <g id="Group_95" data-name="Group 95" transform="translate(6.331 6.331)">
        <g id="Group_94" data-name="Group 94">
          <path id="Path_285" data-name="Path 285" d="M7.561,4.924A2.637,2.637,0,1,0,10.2,7.561,2.64,2.64,0,0,0,7.561,4.924Z" transform="translate(-4.924 -4.924)" fill="#ec4148"/>
        </g>
      </g>
    </g>
  </g>
</svg>
