<svg xmlns="http://www.w3.org/2000/svg" xmlns:xlink="http://www.w3.org/1999/xlink" width="16" height="16" viewBox="0 0 16 16" fill="none">
  <g>
    <path id="Path_541" data-name="Path 541" d="M8,11.171a7.353,7.353,0,0,0-3.2.731,7.66,7.66,0,0,0-2.4,1.805,7.985,7.985,0,0,0,11.2,0A7.416,7.416,0,0,0,8,11.171Z" fill="#2a3331"/>
    <circle id="Ellipse_99" data-name="Ellipse 99" cx="0.522" cy="0.522" r="0.522" transform="translate(7.478 7.478)" fill="#2a3331"/>
    <path id="Path_542" data-name="Path 542" d="M8,0A8,8,0,0,0,1.986,13.269,8.268,8.268,0,0,1,4.54,11.36a8.014,8.014,0,0,1,9.472,1.912A8,8,0,0,0,8,0ZM7.7,1.652a.3.3,0,1,1,.6,0V3.918a.3.3,0,1,1-.6,0ZM3.918,8.3H1.652a.3.3,0,1,1,0-.6H3.918a.3.3,0,1,1,0,.6ZM5.336,5.336a.3.3,0,0,1-.426,0h0L3.291,3.717a.3.3,0,0,1,.426-.426L5.336,4.91A.3.3,0,0,1,5.336,5.336ZM8.554,8.978a1.125,1.125,0,1,1,0-1.957l3.73-3.73a.3.3,0,0,1,.426.426l-3.73,3.73A1.124,1.124,0,0,1,8.554,8.978ZM14.348,8.3H12.082a.3.3,0,1,1,0-.6h2.266a.3.3,0,1,1,0,.6Z" fill="#2a3331"/>
  </g>
</svg>
