<svg xmlns="http://www.w3.org/2000/svg" xmlns:xlink="http://www.w3.org/1999/xlink" width="104" height="32" viewBox="0 0 104 32">
  <defs>
    <clipPath id="clip-path">
      <rect id="Rectangle_1005" data-name="Rectangle 1005" width="104" height="32" transform="translate(558.473 195.185)" fill="#00a4e0" stroke="#707070" stroke-width="1"/>
    </clipPath>
  </defs>
  <g id="Mask_Group_202" data-name="Mask Group 202" transform="translate(-558.473 -195.185)" clip-path="url(#clip-path)">
    <g id="Layer_x0020_1" transform="translate(560.138 201.418)">
      <path id="Path_744" data-name="Path 744" d="M51.874,18.517a3.556,3.556,0,0,0-.1-.933.815.815,0,0,0-.328-.482,1.256,1.256,0,0,0-.646-.144,1.122,1.122,0,0,0-.6.144.851.851,0,0,0-.318.482,3.632,3.632,0,0,0-.092.933v2.03a3.721,3.721,0,0,0,.092.943.859.859,0,0,0,.318.472,1.037,1.037,0,0,0,.6.144,1.161,1.161,0,0,0,.646-.144.822.822,0,0,0,.328-.472,3.644,3.644,0,0,0,.1-.943Zm4.45-2.194a3.208,3.208,0,0,1,.595,2.081V20.26a7.988,7.988,0,0,1-.564,3.076H54.806a9.221,9.221,0,0,0,.513-3.076V18.415a2.155,2.155,0,0,0-.215-1.128.76.76,0,0,0-.7-.328.8.8,0,0,0-.728.338,2.265,2.265,0,0,0-.205,1.118v2.143a3.085,3.085,0,0,1-.677,2.174,2.611,2.611,0,0,1-2,.728,2.537,2.537,0,0,1-1.968-.738,3.122,3.122,0,0,1-.666-2.163v-2.05a3.178,3.178,0,0,1,.646-2.153,2.368,2.368,0,0,1,1.886-.738,2.429,2.429,0,0,1,1.251.287,1.549,1.549,0,0,1,.7.83,1.994,1.994,0,0,1,.759-.851,2.43,2.43,0,0,1,1.189-.267A2.141,2.141,0,0,1,56.324,16.323Z" transform="translate(-22.645 -7.34)" fill="#00a4e0"/>
      <path id="Path_745" data-name="Path 745" d="M72.1,16.344a3.091,3.091,0,0,1,.677,2.163V20.26a7.8,7.8,0,0,1-.564,3.076H70.641a9.221,9.221,0,0,0,.513-3.076V18.517a3.164,3.164,0,0,0-.1-.933.794.794,0,0,0-.308-.482,1.122,1.122,0,0,0-.6-.144,1.136,1.136,0,0,0-.615.144.794.794,0,0,0-.308.482,3.164,3.164,0,0,0-.1.933V20.25a9.415,9.415,0,0,0,.513,3.086H68.058a8.122,8.122,0,0,1-.564-3.065V18.507a3.14,3.14,0,0,1,.666-2.163,2.578,2.578,0,0,1,1.979-.728A2.53,2.53,0,0,1,72.1,16.344Z" transform="translate(-31.734 -7.34)" fill="#00a4e0"/>
      <path id="Path_746" data-name="Path 746" d="M83.332,21.96a1.354,1.354,0,0,0,.256-.9,1.366,1.366,0,0,0-.256-.912.989.989,0,0,0-.8-.287.948.948,0,0,0-.769.287,1.368,1.368,0,0,0-.246.912,1.356,1.356,0,0,0,.246.9,1.215,1.215,0,0,0,1.569,0Zm1.876-.892c0,1.661-.892,2.491-2.666,2.491s-2.645-.83-2.645-2.491A2.178,2.178,0,0,1,81.907,18.6v-.42a.6.6,0,0,0-.133-.41,2.787,2.787,0,0,0-.461-.441c-.133-.123-.236-.215-.308-.3a1.03,1.03,0,0,1-.174-.318,1.73,1.73,0,0,1-.062-.523v-.359h1.64V16a.52.52,0,0,0,.113.359,1.86,1.86,0,0,0,.379.369,1.843,1.843,0,0,1,.482.513,1.341,1.341,0,0,1,.144.687v.728A2.173,2.173,0,0,1,85.208,21.068Z" transform="translate(-37.565 -7.44)" fill="#00a4e0"/>
      <path id="Path_747" data-name="Path 747" d="M97.059,16.344a3.09,3.09,0,0,1,.666,2.163V20.26a7.991,7.991,0,0,1-.554,3.076H95.6a9.216,9.216,0,0,0,.5-3.076V18.517a3.632,3.632,0,0,0-.092-.933.794.794,0,0,0-.308-.482,1.161,1.161,0,0,0-.615-.144,1.122,1.122,0,0,0-.6.144.8.8,0,0,0-.318.482,3.632,3.632,0,0,0-.092.933V20.25a9.153,9.153,0,0,0,.513,3.086H93.02a7.928,7.928,0,0,1-.564-3.065V18.507a3.14,3.14,0,0,1,.666-2.163,2.539,2.539,0,0,1,1.968-.728A2.569,2.569,0,0,1,97.059,16.344Z" transform="translate(-43.47 -7.34)" fill="#00a4e0"/>
      <path id="Path_748" data-name="Path 748" d="M105.227,15.829h1.62v5.219a1.311,1.311,0,0,0,.267.912,1.1,1.1,0,0,0,.861.287,1.175,1.175,0,0,0,.861-.277,1.312,1.312,0,0,0,.256-.912,1.5,1.5,0,0,0-.072-.492c-.062-.144-.133-.328-.246-.543a5.129,5.129,0,0,1-.277-.656,2.112,2.112,0,0,1-.092-.656v-.154h1.62a2.228,2.228,0,0,0,.092.554,6.309,6.309,0,0,0,.246.6,6.823,6.823,0,0,1,.267.7,2.086,2.086,0,0,1,.082.656q0,2.491-2.737,2.491c-1.835,0-2.748-.841-2.748-2.5Z" transform="translate(-49.474 -7.44)" fill="#00a4e0"/>
      <path id="Path_749" data-name="Path 749" d="M122.611,16.344a3.091,3.091,0,0,1,.677,2.163V20.26a7.8,7.8,0,0,1-.564,3.076h-1.569a8.968,8.968,0,0,0,.513-3.076V18.517a3.632,3.632,0,0,0-.092-.933.8.8,0,0,0-.318-.482,1.122,1.122,0,0,0-.6-.144,1.161,1.161,0,0,0-.615.144.794.794,0,0,0-.308.482,3.632,3.632,0,0,0-.092.933V20.25a9.408,9.408,0,0,0,.5,3.086h-1.569a8.122,8.122,0,0,1-.554-3.065V18.507a3.09,3.09,0,0,1,.666-2.163,3.012,3.012,0,0,1,3.927,0Z" transform="translate(-55.488 -7.34)" fill="#00a4e0"/>
      <path id="Path_750" data-name="Path 750" d="M138.545,22.428a2.041,2.041,0,0,0,.369-1.374,2.116,2.116,0,0,0-.369-1.4,1.559,1.559,0,0,0-1.189-.41,1.524,1.524,0,0,0-1.169.41,2.116,2.116,0,0,0-.369,1.4,2.037,2.037,0,0,0,.379,1.374,1.885,1.885,0,0,0,2.348,0Zm.728-3.024a2.727,2.727,0,0,1,.482,1.661,2.564,2.564,0,0,1-.625,1.845,2.32,2.32,0,0,1-1.763.656,2.44,2.44,0,0,1-1.21-.308,2.242,2.242,0,0,1-.861-.861,2.78,2.78,0,0,1-.308-1.333,2.854,2.854,0,0,1,.277-1.292,2.189,2.189,0,0,1,.769-.871,2.3,2.3,0,0,1,1.107-.369v-.656a.845.845,0,0,0-.144-.513,1.232,1.232,0,0,0-.42-.359,1.111,1.111,0,0,1-.431-.41,1.065,1.065,0,0,1-.144-.533v-.349h.841v.226a.572.572,0,0,0,.1.359,1.32,1.32,0,0,0,.369.308,1.364,1.364,0,0,1,.492.472,1.315,1.315,0,0,1,.164.707v.8A2.074,2.074,0,0,1,139.273,19.4Z" transform="translate(-63.467 -7.385)" fill="#00a4e0"/>
      <path id="Path_751" data-name="Path 751" d="M149.072,15.712v.308a3.055,3.055,0,0,0,.082.759,1.744,1.744,0,0,0,.236.574c.113.174.3.42.543.728.287.369.5.666.656.892a3.128,3.128,0,0,1,.349.851,4.881,4.881,0,0,1,.144,1.271,2.752,2.752,0,0,1-.308,1.333,2.051,2.051,0,0,1-.83.841,2.54,2.54,0,0,1-1.23.3A2.32,2.32,0,0,1,147,22.92a2.447,2.447,0,0,1-.636-1.784,3.159,3.159,0,0,1,.523-1.825l.677.246a3.871,3.871,0,0,0-.267.677,3.681,3.681,0,0,0-.1.892,1.945,1.945,0,0,0,.359,1.323,1.913,1.913,0,0,0,2.327-.01,2.1,2.1,0,0,0,.359-1.384,4.052,4.052,0,0,0-.1-1.025,2.414,2.414,0,0,0-.277-.7c-.123-.195-.318-.461-.574-.789a8.112,8.112,0,0,1-.615-.861,2.508,2.508,0,0,1-.308-.728,3.392,3.392,0,0,1-.1-.912v-.328Z" transform="translate(-68.816 -7.385)" fill="#00a4e0"/>
      <path id="Path_752" data-name="Path 752" d="M161.629,22.428a1.984,1.984,0,0,0,.379-1.374,1.9,1.9,0,0,0-.41-1.374,1.6,1.6,0,0,0-1.179-.41,2.376,2.376,0,0,0-.82.144,2.009,2.009,0,0,0-.687.41v1.23a2.041,2.041,0,0,0,.369,1.374,1.885,1.885,0,0,0,2.348,0Zm.082-3.609a2.055,2.055,0,0,1,.82.851,2.947,2.947,0,0,1,.308,1.394,2.554,2.554,0,0,1-.636,1.866,2.379,2.379,0,0,1-4.111-1.784V17.681a1.862,1.862,0,0,1,.584-1.435,2.135,2.135,0,0,1,1.528-.533h2.153v.748h-2.05a1.59,1.59,0,0,0-1.077.3,1.306,1.306,0,0,0-.318.984V19.2a1.909,1.909,0,0,1,.728-.492,2.558,2.558,0,0,1,.933-.174A2.463,2.463,0,0,1,161.711,18.819Z" transform="translate(-74.33 -7.385)" fill="#00a4e0"/>
      <path id="Path_753" data-name="Path 753" d="M169.776,20.285l.748.174a2.59,2.59,0,0,0-.195.984c0,.933.5,1.394,1.517,1.394a1.507,1.507,0,0,0,1.179-.379,1.98,1.98,0,0,0,.349-1.333,2.115,2.115,0,0,0-.369-1.374,1.429,1.429,0,0,0-1.179-.451h-.451v-.718h.584a1.153,1.153,0,0,0,.964-.359,1.625,1.625,0,0,0,.267-.964,2.231,2.231,0,0,0-.123-.738,5.3,5.3,0,0,0-.4-.81h.8a2.788,2.788,0,0,1,.543,1.61,1.779,1.779,0,0,1-.349,1.077,1.561,1.561,0,0,1-1.1.564,1.6,1.6,0,0,1,1.261.707,2.826,2.826,0,0,1,.379,1.5,2.379,2.379,0,0,1-.625,1.784,2.354,2.354,0,0,1-1.733.615,2.769,2.769,0,0,1-1.22-.267,1.914,1.914,0,0,1-.83-.728,2.032,2.032,0,0,1-.308-1.118A2.349,2.349,0,0,1,169.776,20.285Z" transform="translate(-79.688 -7.385)" fill="#00a4e0"/>
      <path id="Path_754" data-name="Path 754" d="M185.274,16.2a2.994,2.994,0,0,1,.6,2.04V19.62a11.306,11.306,0,0,1-.195,2.143,5.061,5.061,0,0,1-.543,1.589h-.81a7.564,7.564,0,0,0,.738-3.742V18.287a4.165,4.165,0,0,0-.144-1.22,1.028,1.028,0,0,0-.461-.625,1.85,1.85,0,0,0-.9-.185,1.806,1.806,0,0,0-.892.185,1.081,1.081,0,0,0-.472.625,4.165,4.165,0,0,0-.144,1.22V19.61a10.2,10.2,0,0,0,.226,2.153,6.693,6.693,0,0,0,.523,1.589h-.841a6.826,6.826,0,0,1-.513-1.6,10.375,10.375,0,0,1-.215-2.133V18.226a2.994,2.994,0,0,1,.6-2.04,2.209,2.209,0,0,1,1.722-.666A2.158,2.158,0,0,1,185.274,16.2Z" transform="translate(-85.211 -7.294)" fill="#00a4e0"/>
      <path id="Path_755" data-name="Path 755" d="M9.7,10.814A2.181,2.181,0,0,1,9.094,13a24.745,24.745,0,0,1-4.716,3.476,19.054,19.054,0,0,1-2.84,1.384C.9,18.094.369,18.186.1,17.725a.868.868,0,0,1,0-.81A70.572,70.572,0,0,1,4.091,9.246c.133-.236.277-.472.41-.718C6.511,5.073,9.166.839,9.689.162c.072-.1.215-.215.338-.144A.265.265,0,0,1,10.119.3a1.351,1.351,0,0,1-.051.185A29.05,29.05,0,0,0,9.7,10.814Z" transform="translate(-0.001 0.004)" fill="#00a4e0"/>
      <path id="Path_756" data-name="Path 756" d="M21.847,11.993c-.841-.39-1.282-.584-1.589-1.63A24.745,24.745,0,0,1,19.6,4.539,20.937,20.937,0,0,1,19.817,1.4c.123-.677.308-1.189.841-1.189a.9.9,0,0,1,.707.41,70.528,70.528,0,0,1,4.644,7.3c.133.226.267.461.41.707,1.989,3.465,4.327,7.884,4.655,8.674.051.113.082.287-.051.369a.271.271,0,0,1-.277-.062l-.133-.133A28.752,28.752,0,0,0,21.847,11.993Z" transform="translate(-9.216 -0.098)" fill="#00a4e0"/>
      <path id="Path_757" data-name="Path 757" d="M10.878,25.619a2.236,2.236,0,0,1,2.2-.564A25.38,25.38,0,0,1,18.454,27.4a21.58,21.58,0,0,1,2.614,1.763c.513.441.871.851.6,1.312a.9.9,0,0,1-.707.41,71.984,71.984,0,0,1-8.643.379H11.5c-4-.01-8.991-.195-9.842-.308-.123-.01-.287-.072-.287-.226a.253.253,0,0,1,.185-.215c.021,0,.144-.041.185-.051A28.54,28.54,0,0,0,10.878,25.619Z" transform="translate(-0.646 -11.735)" fill="#00a4e0"/>
    </g>
  </g>
</svg>
