<svg xmlns="http://www.w3.org/2000/svg" xmlns:xlink="http://www.w3.org/1999/xlink" width="18" height="18" viewBox="0 0 18 18">
  <defs>
    <clipPath id="clip-path">
      <rect id="Rectangle_3312" data-name="Rectangle 3312" width="18" height="18" transform="translate(25 301)" fill="#6f85e2" stroke="#707070" stroke-width="1"/>
    </clipPath>
  </defs>
  <g id="Mask_Group_279" data-name="Mask Group 279" transform="translate(-25 -301)" clip-path="url(#clip-path)">
    <g id="locked" transform="translate(25 301)">
      <path id="Path_1245" data-name="Path 1245" d="M12.563,9.75A2.814,2.814,0,0,1,9.75,6.938V4.313a2.814,2.814,0,0,1,1.5-2.475A3.3,3.3,0,0,1,11.828,0H2.063A2.061,2.061,0,0,0,0,2.063V15.938A2.061,2.061,0,0,0,2.063,18H12.938A2.061,2.061,0,0,0,15,15.938V9.75ZM4.921,15.564a.563.563,0,0,1-.841.747l-.7-.793v.419a.563.563,0,0,1-1.125,0V12.562a.563.563,0,0,1,1.125,0v.419l.7-.793a.563.563,0,1,1,.841.748L3.752,14.25Zm3.517-1.877a.563.563,0,0,1,0,1.125H7.125v.375a.188.188,0,0,0,.188.188H8.438a.563.563,0,0,1,0,1.125H7.313A1.314,1.314,0,0,1,6,15.187V13.312A1.314,1.314,0,0,1,7.313,12H8.438a.563.563,0,0,1,0,1.125H7.313a.188.188,0,0,0-.187.188v.375Zm4.242-.852-.867,1.56v1.541a.563.563,0,0,1-1.125,0V14.4l-.867-1.56a.563.563,0,0,1,.984-.546l.445.8.445-.8a.563.563,0,0,1,.984.546Z" fill="#6f85e2"/>
      <path id="Path_1246" data-name="Path 1246" d="M15.938,4.125H13.313a.563.563,0,0,1-.562-.562V1.875a1.875,1.875,0,0,1,3.75,0V3.563A.563.563,0,0,1,15.938,4.125ZM13.875,3h1.5V1.875a.75.75,0,0,0-1.5,0Z" fill="#6f85e2"/>
      <path id="Path_1247" data-name="Path 1247" d="M16.688,8.25H12.563A1.314,1.314,0,0,1,11.25,6.938V4.313A1.314,1.314,0,0,1,12.563,3h4.125A1.314,1.314,0,0,1,18,4.313V6.938A1.314,1.314,0,0,1,16.688,8.25Z" fill="#6f85e2"/>
    </g>
  </g>
</svg>
